 <svg id="svg" version="1.1" xmlns="http://www.w3.org/2000/svg" xmlns:xlink="http://www.w3.org/1999/xlink" width="40" height="40" viewBox="0 0 40 40" class=" group-hover:animate-spin" loading="lazy">
          <g id="svgg">
            <path id="path2" d="" stroke="none" fill-rule="evenodd" stroke-width="0.1" />
            <path id="path3" d="M19.08 2.138c0 0.074 -0.064 0.112 -0.238 0.141 -0.124 0.02 -0.144 0.039 -0.164 0.164 -0.028 0.174 -0.066 0.238 -0.141 0.238 -0.079 0 -0.076 0.254 0.004 0.376 0.079 0.12 0.138 0.642 0.139 1.214 0 0.376 0.01 0.45 0.061 0.45 0.088 0 0.139 0.168 0.139 0.456 0 0.217 0.013 0.262 0.1 0.337 0.079 0.068 0.1 0.125 0.1 0.265 0 0.134 0.024 0.204 0.1 0.286 0.073 0.079 0.1 0.152 0.1 0.273 0 0.133 0.018 0.173 0.09 0.204 0.068 0.03 0.093 0.078 0.102 0.201 0.009 0.121 0.034 0.171 0.1 0.2 0.067 0.029 0.091 0.079 0.1 0.206 0.01 0.138 0.028 0.17 0.1 0.18 0.059 0.008 0.092 0.046 0.102 0.112a0.424 0.424 0 0 0 0.11 0.196c0.053 0.053 0.096 0.134 0.096 0.181 0 0.05 0.037 0.101 0.09 0.124a0.189 0.189 0 0 1 0.103 0.129c0.007 0.049 0.038 0.09 0.069 0.09s0.083 0.062 0.114 0.138c0.032 0.076 0.095 0.161 0.141 0.189a0.188 0.188 0 0 1 0.083 0.139c0 0.061 0.028 0.092 0.09 0.101 0.056 0.008 0.094 0.045 0.103 0.099a0.138 0.138 0 0 0 0.093 0.107 0.157 0.157 0 0 1 0.101 0.1c0.011 0.044 0.056 0.089 0.1 0.1 0.044 0.011 0.089 0.056 0.1 0.1 0.011 0.044 0.056 0.089 0.1 0.1 0.044 0.011 0.089 0.057 0.1 0.101a0.14 0.14 0 0 0 0.107 0.093c0.054 0.007 0.091 0.046 0.099 0.103 0.009 0.06 0.04 0.09 0.096 0.09 0.046 0 0.124 0.045 0.176 0.101 0.051 0.055 0.139 0.117 0.194 0.139s0.101 0.065 0.101 0.097c0 0.032 0.041 0.064 0.09 0.071a0.189 0.189 0 0 1 0.129 0.103 0.144 0.144 0 0 0 0.132 0.09c0.051 0 0.138 0.045 0.193 0.1s0.136 0.1 0.179 0.1c0.047 0 0.094 0.039 0.116 0.098 0.029 0.076 0.071 0.1 0.189 0.11 0.111 0.009 0.163 0.036 0.191 0.101 0.029 0.066 0.079 0.091 0.2 0.1 0.122 0.009 0.171 0.034 0.201 0.102 0.032 0.073 0.072 0.09 0.204 0.09 0.12 0 0.194 0.027 0.273 0.1 0.077 0.072 0.152 0.1 0.268 0.1 0.166 0 0.396 0.093 0.396 0.161 0 0.022 0.124 0.039 0.277 0.039 0.237 0 0.294 0.014 0.396 0.1 0.112 0.094 0.146 0.1 0.583 0.1 0.711 0 0.626 -0.724 0.614 5.25l-0.009 5.091H13.14l-0.011 -0.889c-0.014 -1.116 -0.051 -1.051 0.615 -1.051 0.437 0 0.471 -0.006 0.583 -0.1 0.102 -0.086 0.159 -0.1 0.396 -0.1 0.153 0 0.277 -0.018 0.277 -0.039 0 -0.068 0.229 -0.161 0.396 -0.161a0.352 0.352 0 0 0 0.268 -0.1 0.354 0.354 0 0 1 0.273 -0.1c0.133 0 0.173 -0.018 0.204 -0.09 0.03 -0.068 0.078 -0.093 0.201 -0.102 0.121 -0.009 0.171 -0.034 0.2 -0.1 0.028 -0.064 0.079 -0.091 0.191 -0.101 0.118 -0.01 0.16 -0.034 0.189 -0.11 0.022 -0.058 0.069 -0.098 0.116 -0.098 0.044 0 0.124 -0.045 0.179 -0.1s0.141 -0.1 0.193 -0.1a0.144 0.144 0 0 0 0.132 -0.09 0.189 0.189 0 0 1 0.129 -0.103c0.049 -0.007 0.09 -0.039 0.09 -0.071 0 -0.032 0.046 -0.076 0.101 -0.097a0.637 0.637 0 0 0 0.194 -0.139c0.051 -0.055 0.13 -0.101 0.176 -0.101 0.055 0 0.087 -0.03 0.096 -0.09a0.114 0.114 0 0 1 0.099 -0.103 0.138 0.138 0 0 0 0.107 -0.093 0.157 0.157 0 0 1 0.1 -0.101 0.154 0.154 0 0 0 0.1 -0.1 0.154 0.154 0 0 1 0.1 -0.1 0.154 0.154 0 0 0 0.1 -0.1 0.154 0.154 0 0 1 0.101 -0.1 0.14 0.14 0 0 0 0.093 -0.107c0.007 -0.054 0.046 -0.091 0.103 -0.099 0.062 -0.009 0.09 -0.04 0.09 -0.101a0.188 0.188 0 0 1 0.083 -0.139 0.479 0.479 0 0 0 0.141 -0.189c0.032 -0.076 0.083 -0.138 0.114 -0.138 0.031 0 0.063 -0.041 0.069 -0.09a0.189 0.189 0 0 1 0.103 -0.129c0.053 -0.023 0.09 -0.074 0.09 -0.126 0 -0.048 0.045 -0.129 0.099 -0.181s0.099 -0.135 0.1 -0.185c0.001 -0.059 0.035 -0.104 0.098 -0.128 0.076 -0.029 0.1 -0.071 0.11 -0.189 0.009 -0.111 0.036 -0.163 0.101 -0.191 0.066 -0.029 0.091 -0.079 0.1 -0.2 0.009 -0.122 0.034 -0.171 0.102 -0.201 0.073 -0.032 0.09 -0.072 0.09 -0.204 0 -0.12 0.027 -0.194 0.1 -0.273 0.075 -0.081 0.1 -0.152 0.1 -0.284 0 -0.134 0.024 -0.2 0.1 -0.276 0.084 -0.084 0.1 -0.138 0.1 -0.339 0 -0.278 0.053 -0.444 0.139 -0.444 0.051 0 0.061 -0.074 0.061 -0.45 0.001 -0.572 0.06 -1.094 0.139 -1.214 0.088 -0.135 0.078 -0.315 -0.022 -0.381 -0.046 -0.03 -0.096 -0.116 -0.111 -0.191 -0.029 -0.144 -0.076 -0.184 -0.26 -0.223 -0.067 -0.014 -0.122 -0.057 -0.135 -0.103 -0.026 -0.098 -0.297 -0.109 -0.475 -0.021 -0.177 0.088 -0.588 0.142 -1.09 0.142 -0.421 0 -0.459 0.007 -0.526 0.09 -0.062 0.076 -0.119 0.092 -0.394 0.104 -0.288 0.013 -0.329 0.025 -0.385 0.111 -0.052 0.079 -0.096 0.096 -0.255 0.096 -0.153 0 -0.211 0.02 -0.286 0.1 -0.072 0.077 -0.134 0.1 -0.267 0.1 -0.125 0 -0.173 0.016 -0.173 0.059 0 0.077 -0.125 0.141 -0.278 0.141 -0.081 0 -0.122 0.02 -0.122 0.059 0 0.077 -0.125 0.141 -0.278 0.141 -0.096 0 -0.122 0.018 -0.122 0.079 0 0.053 -0.036 0.088 -0.11 0.106a0.541 0.541 0 0 0 -0.206 0.121c-0.053 0.052 -0.134 0.094 -0.181 0.094 -0.05 0 -0.101 0.037 -0.124 0.09 -0.022 0.049 -0.072 0.096 -0.111 0.103 -0.039 0.007 -0.115 0.057 -0.168 0.11 -0.053 0.053 -0.12 0.097 -0.149 0.097 -0.029 0 -0.086 0.045 -0.128 0.1 -0.041 0.055 -0.107 0.1 -0.147 0.1 -0.044 0 -0.077 0.035 -0.084 0.09a0.114 0.114 0 0 1 -0.099 0.103 0.138 0.138 0 0 0 -0.107 0.093 0.157 0.157 0 0 1 -0.1 0.101 0.154 0.154 0 0 0 -0.1 0.1 0.154 0.154 0 0 1 -0.1 0.1 0.154 0.154 0 0 0 -0.1 0.1 0.154 0.154 0 0 1 -0.101 0.1 0.14 0.14 0 0 0 -0.093 0.107c-0.007 0.054 -0.046 0.091 -0.103 0.099 -0.055 0.007 -0.09 0.041 -0.09 0.084 0 0.039 -0.044 0.105 -0.099 0.146a0.38 0.38 0 0 0 -0.124 0.191c-0.014 0.065 -0.058 0.125 -0.099 0.136 -0.041 0.011 -0.079 0.058 -0.086 0.105a0.186 0.186 0 0 1 -0.103 0.126c-0.053 0.023 -0.09 0.075 -0.09 0.124 0 0.047 -0.043 0.128 -0.094 0.181a0.526 0.526 0 0 0 -0.121 0.206c-0.018 0.074 -0.053 0.11 -0.106 0.11 -0.062 0 -0.079 0.027 -0.079 0.122 0 0.152 -0.064 0.278 -0.141 0.278 -0.041 0 -0.059 0.045 -0.059 0.152 0 0.198 -0.056 0.248 -0.28 0.248 -0.221 0 -0.28 -0.05 -0.28 -0.239 0 -0.109 -0.021 -0.152 -0.09 -0.182 -0.069 -0.031 -0.092 -0.078 -0.103 -0.209 -0.01 -0.137 -0.027 -0.17 -0.089 -0.17 -0.049 0 -0.086 -0.037 -0.103 -0.103a0.523 0.523 0 0 0 -0.121 -0.198c-0.052 -0.053 -0.095 -0.136 -0.095 -0.188a0.144 0.144 0 0 0 -0.09 -0.132 0.189 0.189 0 0 1 -0.103 -0.129c-0.007 -0.049 -0.038 -0.09 -0.069 -0.09s-0.081 -0.059 -0.112 -0.13a0.686 0.686 0 0 0 -0.141 -0.206c-0.047 -0.042 -0.086 -0.108 -0.086 -0.147 0 -0.043 -0.035 -0.076 -0.09 -0.084a0.114 0.114 0 0 1 -0.103 -0.099 0.138 0.138 0 0 0 -0.093 -0.107 0.157 0.157 0 0 1 -0.101 -0.1 0.154 0.154 0 0 0 -0.1 -0.1 0.154 0.154 0 0 1 -0.1 -0.1 0.154 0.154 0 0 0 -0.1 -0.1 0.154 0.154 0 0 1 -0.1 -0.101 0.14 0.14 0 0 0 -0.107 -0.093c-0.054 -0.007 -0.091 -0.046 -0.099 -0.103 -0.009 -0.062 -0.04 -0.09 -0.101 -0.09a0.188 0.188 0 0 1 -0.139 -0.083 0.479 0.479 0 0 0 -0.189 -0.141c-0.076 -0.032 -0.138 -0.083 -0.138 -0.114 0 -0.031 -0.041 -0.063 -0.09 -0.069a0.189 0.189 0 0 1 -0.129 -0.103 0.144 0.144 0 0 0 -0.132 -0.09c-0.051 0 -0.135 -0.043 -0.188 -0.095a0.516 0.516 0 0 0 -0.198 -0.121c-0.066 -0.017 -0.103 -0.054 -0.103 -0.103 0 -0.062 -0.033 -0.079 -0.17 -0.089 -0.131 -0.009 -0.179 -0.033 -0.209 -0.103 -0.027 -0.063 -0.074 -0.09 -0.152 -0.09 -0.144 0 -0.268 -0.066 -0.268 -0.141 0 -0.043 -0.048 -0.059 -0.173 -0.059 -0.133 0 -0.195 -0.023 -0.267 -0.1 -0.073 -0.078 -0.134 -0.1 -0.277 -0.101 -0.199 -0.001 -0.256 -0.025 -0.293 -0.125 -0.019 -0.052 -0.094 -0.069 -0.351 -0.081 -0.28 -0.013 -0.338 -0.027 -0.399 -0.104 -0.068 -0.083 -0.105 -0.089 -0.526 -0.09 -0.502 0 -0.912 -0.054 -1.09 -0.142 -0.156 -0.077 -0.464 -0.077 -0.464 0 0 0.074 -0.064 0.112 -0.238 0.141 -0.124 0.02 -0.144 0.039 -0.164 0.164 -0.028 0.174 -0.066 0.238 -0.141 0.238 -0.079 0 -0.076 0.254 0.004 0.376 0.079 0.12 0.138 0.642 0.139 1.214 0 0.376 0.01 0.45 0.061 0.45 0.088 0 0.139 0.168 0.139 0.456 0 0.217 0.013 0.262 0.1 0.337 0.079 0.068 0.1 0.125 0.1 0.265 0 0.134 0.024 0.204 0.1 0.286 0.073 0.079 0.1 0.152 0.1 0.273 0 0.133 0.018 0.173 0.09 0.204 0.068 0.03 0.093 0.078 0.102 0.201 0.009 0.121 0.034 0.171 0.1 0.2 0.067 0.029 0.091 0.079 0.1 0.206 0.01 0.138 0.028 0.17 0.1 0.18 0.059 0.008 0.092 0.046 0.102 0.112a0.424 0.424 0 0 0 0.11 0.196c0.053 0.053 0.096 0.134 0.096 0.181 0 0.05 0.037 0.101 0.09 0.124a0.189 0.189 0 0 1 0.103 0.129c0.007 0.049 0.038 0.09 0.069 0.09s0.083 0.062 0.114 0.138c0.032 0.076 0.095 0.161 0.141 0.189a0.188 0.188 0 0 1 0.083 0.139c0 0.061 0.028 0.092 0.09 0.101 0.056 0.008 0.094 0.045 0.103 0.099a0.138 0.138 0 0 0 0.093 0.107 0.157 0.157 0 0 1 0.101 0.1c0.011 0.044 0.056 0.089 0.1 0.1 0.044 0.011 0.089 0.056 0.1 0.1 0.011 0.044 0.056 0.089 0.1 0.1 0.044 0.011 0.089 0.057 0.1 0.101a0.14 0.14 0 0 0 0.107 0.093c0.054 0.007 0.091 0.046 0.099 0.103 0.009 0.06 0.04 0.09 0.096 0.09 0.046 0 0.124 0.045 0.176 0.101 0.051 0.055 0.139 0.117 0.194 0.139s0.101 0.065 0.101 0.097c0 0.032 0.041 0.064 0.09 0.071a0.189 0.189 0 0 1 0.129 0.103 0.144 0.144 0 0 0 0.132 0.09c0.051 0 0.138 0.045 0.193 0.1s0.136 0.1 0.179 0.1c0.047 0 0.094 0.039 0.116 0.098 0.029 0.076 0.071 0.1 0.189 0.11 0.111 0.009 0.163 0.036 0.191 0.101 0.029 0.066 0.079 0.091 0.2 0.1 0.122 0.009 0.171 0.034 0.201 0.102 0.032 0.073 0.072 0.09 0.204 0.09 0.12 0 0.194 0.027 0.273 0.1 0.077 0.072 0.152 0.1 0.268 0.1 0.166 0 0.396 0.093 0.396 0.161 0 0.022 0.124 0.039 0.277 0.039 0.237 0 0.294 0.014 0.396 0.1 0.112 0.094 0.146 0.1 0.583 0.1 0.666 0 0.629 -0.065 0.615 1.051l-0.011 0.889 -1.3 0.02c-1.21 0.019 -1.308 0.026 -1.417 0.099 -0.079 0.054 -0.204 0.084 -0.39 0.094 -0.195 0.011 -0.273 0.031 -0.273 0.069 0 0.073 -0.128 0.137 -0.274 0.137 -0.094 0 -0.122 0.019 -0.133 0.09a0.114 0.114 0 0 1 -0.099 0.103 0.138 0.138 0 0 0 -0.107 0.093 0.159 0.159 0 0 1 -0.102 0.102 0.14 0.14 0 0 0 -0.093 0.107c-0.007 0.054 -0.046 0.091 -0.103 0.099 -0.071 0.01 -0.09 0.039 -0.09 0.133 0 0.146 -0.064 0.274 -0.137 0.274 -0.039 0 -0.059 0.079 -0.07 0.278 -0.012 0.208 -0.038 0.309 -0.104 0.398 -0.134 0.182 -0.134 1.105 0 1.287 0.066 0.089 0.092 0.191 0.104 0.398 0.011 0.199 0.031 0.278 0.07 0.278 0.07 0 0.137 0.126 0.137 0.258 0 0.074 0.029 0.114 0.1 0.142 0.059 0.022 0.1 0.069 0.1 0.116 0 0.051 0.032 0.083 0.09 0.091a0.113 0.113 0 0 1 0.103 0.103c0.008 0.058 0.04 0.09 0.091 0.09 0.046 0 0.093 0.04 0.115 0.098 0.029 0.076 0.071 0.1 0.189 0.11 0.112 0.009 0.163 0.036 0.191 0.103 0.03 0.069 0.073 0.09 0.182 0.09 0.146 0 0.239 0.057 0.239 0.146 0 0.027 0.045 0.095 0.1 0.15 0.081 0.081 0.1 0.139 0.1 0.306 0 0.161 0.022 0.232 0.1 0.325 0.081 0.097 0.1 0.162 0.1 0.349 0 0.195 0.015 0.242 0.1 0.317 0.088 0.076 0.1 0.12 0.1 0.344 0 0.217 0.012 0.261 0.076 0.282 0.092 0.029 0.123 0.134 0.124 0.411 0.001 0.161 0.015 0.21 0.061 0.21 0.081 0 0.139 0.163 0.139 0.387 0 0.136 0.026 0.212 0.1 0.301 0.081 0.097 0.1 0.162 0.1 0.349 0 0.195 0.015 0.242 0.1 0.317 0.088 0.076 0.1 0.12 0.1 0.344 0 0.217 0.012 0.261 0.076 0.282 0.092 0.029 0.123 0.134 0.124 0.411 0.001 0.161 0.015 0.21 0.061 0.21 0.081 0 0.139 0.163 0.139 0.387 0 0.136 0.026 0.212 0.1 0.301 0.081 0.097 0.1 0.162 0.1 0.349 0 0.195 0.015 0.242 0.1 0.317 0.088 0.076 0.1 0.12 0.1 0.344 0 0.217 0.012 0.261 0.076 0.282 0.092 0.029 0.123 0.134 0.124 0.411 0.001 0.161 0.015 0.21 0.061 0.21 0.083 0 0.139 0.164 0.139 0.401 0 0.122 0.021 0.208 0.054 0.227 0.087 0.051 0.146 0.195 0.146 0.355 0 0.106 0.028 0.174 0.1 0.241a0.294 0.294 0 0 1 0.1 0.214c0 0.095 0.018 0.122 0.079 0.122 0.051 0 0.088 0.035 0.103 0.096 0.013 0.053 0.06 0.106 0.104 0.117a0.156 0.156 0 0 1 0.101 0.101 0.14 0.14 0 0 0 0.107 0.093c0.054 0.007 0.091 0.046 0.099 0.103 0.01 0.073 0.038 0.09 0.147 0.09 0.124 0 0.26 0.083 0.26 0.158 0 0.018 0.128 0.041 0.283 0.052 0.203 0.014 0.316 0.044 0.398 0.106l0.115 0.085h13.046l0.115 -0.085c0.083 -0.061 0.196 -0.091 0.398 -0.106 0.156 -0.011 0.283 -0.034 0.283 -0.052 0 -0.075 0.136 -0.158 0.26 -0.158 0.109 0 0.137 -0.017 0.147 -0.09a0.114 0.114 0 0 1 0.099 -0.103 0.138 0.138 0 0 0 0.107 -0.093 0.159 0.159 0 0 1 0.102 -0.102 0.14 0.14 0 0 0 0.093 -0.107c0.007 -0.054 0.046 -0.091 0.103 -0.099 0.07 -0.01 0.09 -0.039 0.09 -0.132 0 -0.074 0.036 -0.152 0.094 -0.208 0.069 -0.064 0.1 -0.146 0.115 -0.306 0.014 -0.151 0.045 -0.237 0.101 -0.282 0.06 -0.049 0.084 -0.128 0.098 -0.32 0.015 -0.206 0.036 -0.266 0.106 -0.313 0.071 -0.048 0.087 -0.096 0.087 -0.276 0 -0.239 0.051 -0.372 0.141 -0.372 0.046 0 0.059 -0.058 0.059 -0.258 0 -0.222 0.014 -0.273 0.1 -0.358 0.081 -0.081 0.1 -0.14 0.1 -0.304 0 -0.203 0.048 -0.343 0.143 -0.419 0.027 -0.022 0.057 -0.156 0.067 -0.297 0.014 -0.209 0.033 -0.268 0.104 -0.315 0.071 -0.048 0.087 -0.096 0.087 -0.276 0 -0.239 0.051 -0.372 0.141 -0.372 0.046 0 0.059 -0.058 0.059 -0.258 0 -0.222 0.014 -0.273 0.1 -0.358 0.081 -0.081 0.1 -0.14 0.1 -0.304 0 -0.203 0.048 -0.343 0.143 -0.419 0.027 -0.022 0.057 -0.156 0.067 -0.297 0.014 -0.209 0.033 -0.268 0.104 -0.315 0.071 -0.048 0.087 -0.096 0.087 -0.276 0 -0.239 0.051 -0.372 0.141 -0.372 0.046 0 0.059 -0.058 0.059 -0.258 0 -0.222 0.014 -0.273 0.1 -0.358 0.081 -0.081 0.1 -0.14 0.1 -0.304 0 -0.211 0.051 -0.355 0.146 -0.411 0.034 -0.02 0.054 -0.106 0.054 -0.227 0 -0.237 0.057 -0.401 0.139 -0.401 0.034 0 0.061 -0.033 0.061 -0.072 0 -0.111 0.082 -0.168 0.239 -0.168 0.109 0 0.152 -0.021 0.182 -0.09 0.027 -0.062 0.08 -0.094 0.17 -0.103a0.25 0.25 0 0 0 0.194 -0.11c0.035 -0.054 0.096 -0.098 0.136 -0.098 0.045 0 0.077 -0.034 0.086 -0.09a0.113 0.113 0 0 1 0.103 -0.103c0.056 -0.008 0.09 -0.041 0.09 -0.086 0 -0.04 0.044 -0.101 0.098 -0.136a0.251 0.251 0 0 0 0.11 -0.194c0.009 -0.088 0.041 -0.143 0.099 -0.169 0.073 -0.033 0.088 -0.078 0.101 -0.308 0.011 -0.2 0.039 -0.302 0.104 -0.391 0.108 -0.146 0.139 -1.176 0.036 -1.215 -0.074 -0.028 -0.147 -0.3 -0.147 -0.543 0 -0.154 -0.015 -0.206 -0.059 -0.206 -0.074 0 -0.141 -0.123 -0.141 -0.258 0 -0.074 -0.029 -0.114 -0.1 -0.142 -0.061 -0.023 -0.1 -0.069 -0.1 -0.119 0 -0.054 -0.026 -0.081 -0.079 -0.081 -0.051 0 -0.088 -0.036 -0.104 -0.1 -0.016 -0.063 -0.053 -0.1 -0.102 -0.1 -0.045 0 -0.092 -0.041 -0.115 -0.1 -0.027 -0.071 -0.068 -0.1 -0.142 -0.1 -0.132 0 -0.258 -0.067 -0.258 -0.137 0 -0.039 -0.078 -0.059 -0.273 -0.069 -0.186 -0.011 -0.311 -0.041 -0.39 -0.094 -0.109 -0.074 -0.206 -0.081 -1.417 -0.099l-1.3 -0.02 -0.01 -5.09c-0.012 -5.975 -0.097 -5.25 0.614 -5.25 0.437 0 0.471 -0.006 0.583 -0.1 0.102 -0.086 0.159 -0.1 0.396 -0.1 0.153 0 0.277 -0.018 0.277 -0.039 0 -0.068 0.229 -0.161 0.396 -0.161a0.352 0.352 0 0 0 0.268 -0.1 0.354 0.354 0 0 1 0.273 -0.1c0.133 0 0.173 -0.018 0.204 -0.09 0.03 -0.068 0.078 -0.093 0.201 -0.102 0.121 -0.009 0.171 -0.034 0.2 -0.1 0.028 -0.064 0.079 -0.091 0.191 -0.101 0.118 -0.01 0.16 -0.034 0.189 -0.11 0.022 -0.058 0.069 -0.098 0.116 -0.098 0.044 0 0.124 -0.045 0.179 -0.1s0.141 -0.1 0.193 -0.1a0.144 0.144 0 0 0 0.132 -0.09 0.189 0.189 0 0 1 0.129 -0.103c0.049 -0.007 0.09 -0.039 0.09 -0.071 0 -0.032 0.046 -0.076 0.101 -0.097a0.637 0.637 0 0 0 0.194 -0.139c0.051 -0.055 0.13 -0.101 0.176 -0.101 0.055 0 0.087 -0.03 0.096 -0.09a0.114 0.114 0 0 1 0.099 -0.103 0.138 0.138 0 0 0 0.107 -0.093 0.157 0.157 0 0 1 0.1 -0.101 0.154 0.154 0 0 0 0.1 -0.1 0.154 0.154 0 0 1 0.1 -0.1 0.154 0.154 0 0 0 0.1 -0.1 0.154 0.154 0 0 1 0.101 -0.1 0.14 0.14 0 0 0 0.093 -0.107c0.007 -0.054 0.046 -0.091 0.103 -0.099 0.062 -0.009 0.09 -0.04 0.09 -0.101a0.188 0.188 0 0 1 0.083 -0.139 0.479 0.479 0 0 0 0.141 -0.189c0.032 -0.076 0.083 -0.138 0.114 -0.138 0.031 0 0.063 -0.041 0.069 -0.09a0.189 0.189 0 0 1 0.103 -0.129c0.053 -0.023 0.09 -0.074 0.09 -0.126 0 -0.048 0.045 -0.129 0.099 -0.181s0.099 -0.135 0.1 -0.185c0.001 -0.059 0.035 -0.104 0.098 -0.128 0.076 -0.029 0.1 -0.071 0.11 -0.189 0.009 -0.111 0.036 -0.163 0.101 -0.191 0.066 -0.029 0.091 -0.079 0.1 -0.2 0.009 -0.122 0.034 -0.171 0.102 -0.201 0.073 -0.032 0.09 -0.072 0.09 -0.204 0 -0.12 0.027 -0.194 0.1 -0.273 0.075 -0.081 0.1 -0.152 0.1 -0.284 0 -0.134 0.024 -0.2 0.1 -0.276 0.084 -0.084 0.1 -0.138 0.1 -0.339 0 -0.278 0.053 -0.444 0.139 -0.444 0.051 0 0.061 -0.074 0.061 -0.45 0.001 -0.572 0.06 -1.094 0.139 -1.214 0.088 -0.135 0.078 -0.315 -0.022 -0.381 -0.046 -0.03 -0.096 -0.116 -0.111 -0.191 -0.029 -0.144 -0.076 -0.184 -0.26 -0.223 -0.067 -0.014 -0.122 -0.057 -0.135 -0.103 -0.026 -0.098 -0.297 -0.109 -0.475 -0.021 -0.177 0.088 -0.588 0.142 -1.09 0.142 -0.421 0 -0.459 0.007 -0.526 0.09 -0.062 0.076 -0.119 0.092 -0.394 0.104 -0.288 0.013 -0.329 0.025 -0.385 0.111 -0.052 0.079 -0.096 0.096 -0.255 0.096 -0.153 0 -0.211 0.02 -0.286 0.1 -0.072 0.077 -0.134 0.1 -0.267 0.1 -0.125 0 -0.173 0.016 -0.173 0.059 0 0.077 -0.125 0.141 -0.278 0.141 -0.081 0 -0.122 0.02 -0.122 0.059 0 0.077 -0.125 0.141 -0.278 0.141 -0.096 0 -0.122 0.018 -0.122 0.079 0 0.053 -0.036 0.088 -0.11 0.106a0.541 0.541 0 0 0 -0.206 0.121c-0.053 0.052 -0.134 0.094 -0.181 0.094 -0.05 0 -0.101 0.037 -0.124 0.09 -0.022 0.049 -0.072 0.096 -0.111 0.103 -0.039 0.007 -0.115 0.057 -0.168 0.11 -0.053 0.053 -0.12 0.097 -0.149 0.097 -0.029 0 -0.086 0.045 -0.128 0.1 -0.041 0.055 -0.107 0.1 -0.147 0.1 -0.044 0 -0.077 0.035 -0.084 0.09a0.114 0.114 0 0 1 -0.099 0.103 0.138 0.138 0 0 0 -0.107 0.093 0.157 0.157 0 0 1 -0.1 0.101 0.154 0.154 0 0 0 -0.1 0.1 0.154 0.154 0 0 1 -0.1 0.1 0.154 0.154 0 0 0 -0.1 0.1 0.154 0.154 0 0 1 -0.101 0.1 0.14 0.14 0 0 0 -0.093 0.107c-0.007 0.054 -0.046 0.091 -0.103 0.099 -0.055 0.007 -0.09 0.041 -0.09 0.084 0 0.039 -0.044 0.105 -0.099 0.146a0.38 0.38 0 0 0 -0.124 0.191c-0.014 0.065 -0.058 0.125 -0.099 0.136 -0.041 0.011 -0.079 0.058 -0.086 0.105a0.186 0.186 0 0 1 -0.103 0.126c-0.053 0.023 -0.09 0.075 -0.09 0.124 0 0.047 -0.043 0.128 -0.094 0.181a0.526 0.526 0 0 0 -0.121 0.206c-0.018 0.074 -0.053 0.11 -0.106 0.11 -0.062 0 -0.079 0.027 -0.079 0.122 0 0.152 -0.064 0.278 -0.141 0.278 -0.041 0 -0.059 0.045 -0.059 0.152 0 0.198 -0.056 0.248 -0.28 0.248 -0.221 0 -0.28 -0.05 -0.28 -0.239 0 -0.109 -0.021 -0.152 -0.09 -0.182 -0.069 -0.031 -0.092 -0.078 -0.103 -0.209 -0.01 -0.137 -0.027 -0.17 -0.089 -0.17 -0.049 0 -0.086 -0.037 -0.103 -0.103a0.523 0.523 0 0 0 -0.121 -0.198c-0.052 -0.053 -0.095 -0.136 -0.095 -0.188a0.144 0.144 0 0 0 -0.09 -0.132 0.189 0.189 0 0 1 -0.103 -0.129c-0.007 -0.049 -0.038 -0.09 -0.069 -0.09s-0.081 -0.059 -0.112 -0.13a0.686 0.686 0 0 0 -0.141 -0.206c-0.047 -0.042 -0.086 -0.108 -0.086 -0.147 0 -0.043 -0.035 -0.076 -0.09 -0.084a0.114 0.114 0 0 1 -0.103 -0.099 0.138 0.138 0 0 0 -0.093 -0.107 0.157 0.157 0 0 1 -0.101 -0.1 0.154 0.154 0 0 0 -0.1 -0.1 0.154 0.154 0 0 1 -0.1 -0.1 0.154 0.154 0 0 0 -0.1 -0.1 0.154 0.154 0 0 1 -0.1 -0.101 0.14 0.14 0 0 0 -0.107 -0.093c-0.054 -0.007 -0.091 -0.046 -0.099 -0.103 -0.009 -0.062 -0.04 -0.09 -0.101 -0.09a0.188 0.188 0 0 1 -0.139 -0.083 0.479 0.479 0 0 0 -0.189 -0.141c-0.076 -0.032 -0.138 -0.083 -0.138 -0.114 0 -0.031 -0.041 -0.063 -0.09 -0.069a0.189 0.189 0 0 1 -0.129 -0.103 0.144 0.144 0 0 0 -0.132 -0.09c-0.051 0 -0.135 -0.043 -0.188 -0.095a0.516 0.516 0 0 0 -0.198 -0.121c-0.066 -0.017 -0.103 -0.054 -0.103 -0.103 0 -0.062 -0.033 -0.079 -0.17 -0.089 -0.131 -0.009 -0.179 -0.033 -0.209 -0.103 -0.027 -0.063 -0.074 -0.09 -0.152 -0.09 -0.144 0 -0.268 -0.066 -0.268 -0.141 0 -0.043 -0.048 -0.059 -0.173 -0.059 -0.133 0 -0.195 -0.023 -0.267 -0.1 -0.073 -0.078 -0.134 -0.1 -0.277 -0.101 -0.199 -0.001 -0.256 -0.025 -0.293 -0.125 -0.019 -0.052 -0.094 -0.069 -0.351 -0.081 -0.28 -0.013 -0.338 -0.027 -0.399 -0.104 -0.068 -0.083 -0.105 -0.089 -0.526 -0.09 -0.502 0 -0.912 -0.054 -1.09 -0.142 -0.156 -0.077 -0.464 -0.077 -0.464 0m1.698 1.421c0.056 0.021 0.103 0.066 0.103 0.1 0 0.049 0.056 0.061 0.278 0.061 0.313 0 0.483 0.049 0.483 0.139 0 0.046 0.047 0.061 0.197 0.061 0.152 0 0.224 0.023 0.316 0.1 0.066 0.055 0.156 0.1 0.201 0.1 0.134 0 0.287 0.074 0.287 0.139 0 0.041 0.039 0.061 0.122 0.061 0.077 0 0.159 0.037 0.222 0.1 0.055 0.055 0.133 0.1 0.174 0.1s0.103 0.045 0.139 0.1c0.04 0.061 0.103 0.1 0.162 0.1 0.094 0 0.222 0.092 0.222 0.16 0 0.019 0.041 0.04 0.09 0.047a0.113 0.113 0 0 1 0.103 0.103c0.009 0.061 0.04 0.09 0.1 0.091 0.109 0.001 0.707 0.531 0.988 0.874a5.94 5.94 0 0 0 0.21 0.241c0.061 0.065 0.11 0.154 0.11 0.198 0 0.053 0.031 0.085 0.09 0.093a0.113 0.113 0 0 1 0.103 0.103c0.007 0.049 0.028 0.09 0.047 0.09 0.074 0 0.16 0.131 0.16 0.244 0 0.089 0.024 0.128 0.1 0.156 0.06 0.023 0.1 0.069 0.1 0.117 0 0.044 0.045 0.124 0.1 0.179 0.063 0.063 0.1 0.145 0.1 0.222 0 0.083 0.02 0.122 0.061 0.122 0.068 0 0.139 0.154 0.139 0.301 0 0.053 0.045 0.144 0.1 0.203 0.074 0.081 0.1 0.152 0.1 0.28 0 0.131 0.024 0.197 0.1 0.273 0.088 0.088 0.1 0.134 0.1 0.38 0 0.245 0.013 0.293 0.1 0.38 0.114 0.114 0.152 0.755 0.052 0.856 -0.101 0.101 -0.742 0.062 -0.856 -0.052 -0.088 -0.088 -0.135 -0.1 -0.38 -0.1 -0.246 0 -0.293 -0.013 -0.38 -0.1 -0.076 -0.076 -0.142 -0.1 -0.273 -0.1 -0.128 0 -0.2 -0.026 -0.28 -0.1 -0.059 -0.055 -0.151 -0.1 -0.203 -0.1 -0.146 0 -0.301 -0.071 -0.301 -0.139 0 -0.041 -0.039 -0.061 -0.122 -0.061a0.324 0.324 0 0 1 -0.222 -0.1c-0.055 -0.055 -0.136 -0.1 -0.179 -0.1 -0.048 0 -0.094 -0.04 -0.117 -0.1 -0.029 -0.076 -0.067 -0.1 -0.156 -0.1 -0.112 0 -0.244 -0.086 -0.244 -0.16 0 -0.019 -0.041 -0.04 -0.09 -0.047a0.113 0.113 0 0 1 -0.103 -0.103c-0.008 -0.059 -0.04 -0.09 -0.092 -0.09 -0.076 0 -0.179 -0.078 -0.435 -0.33 -0.061 -0.061 -0.132 -0.11 -0.157 -0.11 -0.025 0 -0.062 -0.045 -0.083 -0.1 -0.021 -0.055 -0.066 -0.1 -0.1 -0.1 -0.034 0 -0.074 -0.031 -0.089 -0.07a0.699 0.699 0 0 0 -0.129 -0.176c-0.252 -0.26 -0.323 -0.354 -0.323 -0.429 0 -0.053 -0.031 -0.084 -0.09 -0.092a0.113 0.113 0 0 1 -0.103 -0.103c-0.007 -0.049 -0.028 -0.09 -0.047 -0.09 -0.074 0 -0.16 -0.131 -0.16 -0.244 0 -0.089 -0.024 -0.128 -0.1 -0.156 -0.06 -0.023 -0.1 -0.069 -0.1 -0.117 0 -0.044 -0.045 -0.124 -0.1 -0.179a0.323 0.323 0 0 1 -0.1 -0.222c0 -0.083 -0.02 -0.122 -0.061 -0.122 -0.065 0 -0.139 -0.152 -0.139 -0.287 0 -0.045 -0.045 -0.135 -0.1 -0.201 -0.077 -0.091 -0.1 -0.164 -0.1 -0.316 0 -0.15 -0.014 -0.197 -0.061 -0.197 -0.09 0 -0.139 -0.17 -0.139 -0.483 0 -0.222 -0.013 -0.278 -0.061 -0.278 -0.131 0 -0.209 -0.793 -0.091 -0.912 0.059 -0.059 0.661 -0.065 0.809 -0.009m14.462 0.02c0.092 0.111 0.039 0.774 -0.069 0.861 -0.078 0.063 -0.09 0.111 -0.09 0.358 0 0.251 -0.012 0.297 -0.1 0.386 -0.076 0.076 -0.1 0.142 -0.1 0.273 0 0.128 -0.026 0.2 -0.1 0.28 -0.055 0.059 -0.1 0.151 -0.1 0.203 0 0.146 -0.071 0.301 -0.139 0.301 -0.041 0 -0.061 0.039 -0.061 0.122a0.324 0.324 0 0 1 -0.1 0.222c-0.055 0.055 -0.1 0.136 -0.1 0.179 0 0.048 -0.04 0.094 -0.1 0.117 -0.071 0.027 -0.1 0.068 -0.1 0.141a0.309 0.309 0 0 1 -0.095 0.191 0.401 0.401 0 0 0 -0.111 0.168c-0.009 0.046 -0.053 0.085 -0.105 0.092 -0.059 0.008 -0.089 0.041 -0.089 0.092 0 0.076 -0.078 0.179 -0.33 0.435 -0.061 0.061 -0.11 0.132 -0.11 0.157 0 0.025 -0.045 0.062 -0.1 0.083 -0.055 0.021 -0.1 0.066 -0.1 0.1 0 0.034 -0.031 0.074 -0.07 0.089a0.699 0.699 0 0 0 -0.176 0.129c-0.26 0.252 -0.354 0.323 -0.429 0.323 -0.052 0 -0.084 0.031 -0.092 0.089 -0.007 0.052 -0.047 0.096 -0.092 0.105a0.396 0.396 0 0 0 -0.168 0.111 0.291 0.291 0 0 1 -0.208 0.095c-0.093 0 -0.122 0.02 -0.132 0.09 -0.008 0.058 -0.045 0.094 -0.104 0.103a0.417 0.417 0 0 0 -0.188 0.11 0.323 0.323 0 0 1 -0.219 0.097c-0.083 0 -0.122 0.02 -0.122 0.061 0 0.068 -0.154 0.139 -0.301 0.139 -0.053 0 -0.144 0.045 -0.203 0.1 -0.081 0.074 -0.152 0.1 -0.28 0.1 -0.131 0 -0.197 0.024 -0.273 0.1 -0.088 0.088 -0.134 0.1 -0.386 0.1 -0.247 0 -0.295 0.012 -0.358 0.09 -0.088 0.107 -0.751 0.161 -0.861 0.069 -0.13 -0.108 -0.059 -0.919 0.08 -0.919 0.049 0 0.061 -0.056 0.061 -0.278 0 -0.313 0.049 -0.483 0.139 -0.483 0.046 0 0.061 -0.046 0.061 -0.182 0 -0.191 0.054 -0.335 0.146 -0.389 0.03 -0.018 0.054 -0.095 0.054 -0.172 0 -0.098 0.03 -0.168 0.1 -0.232 0.055 -0.051 0.1 -0.132 0.1 -0.18s0.045 -0.133 0.1 -0.188 0.1 -0.133 0.1 -0.174 0.045 -0.103 0.1 -0.139c0.061 -0.04 0.1 -0.103 0.1 -0.162 0 -0.094 0.092 -0.222 0.16 -0.222 0.019 0 0.04 -0.041 0.047 -0.09a0.113 0.113 0 0 1 0.103 -0.103c0.064 -0.009 0.09 -0.04 0.09 -0.106 0 -0.051 0.046 -0.136 0.103 -0.188 0.056 -0.052 0.119 -0.135 0.139 -0.184 0.02 -0.049 0.064 -0.09 0.098 -0.09 0.034 0 0.061 -0.018 0.061 -0.039 0 -0.051 0.35 -0.401 0.401 -0.401 0.021 0 0.039 -0.027 0.039 -0.061 0 -0.034 0.041 -0.077 0.09 -0.098 0.049 -0.02 0.133 -0.083 0.184 -0.139 0.052 -0.056 0.136 -0.103 0.188 -0.103 0.066 0 0.097 -0.026 0.106 -0.09a0.113 0.113 0 0 1 0.103 -0.103c0.049 -0.007 0.09 -0.028 0.09 -0.047 0 -0.068 0.128 -0.16 0.222 -0.16 0.059 0 0.122 -0.039 0.162 -0.1 0.036 -0.055 0.099 -0.1 0.139 -0.1s0.119 -0.045 0.174 -0.1 0.139 -0.1 0.188 -0.1c0.048 0 0.129 -0.045 0.18 -0.1a0.291 0.291 0 0 1 0.232 -0.1c0.077 0 0.154 -0.024 0.172 -0.054 0.054 -0.092 0.198 -0.146 0.389 -0.146 0.137 0 0.182 -0.015 0.182 -0.061 0 -0.09 0.17 -0.139 0.483 -0.139 0.222 0 0.278 -0.012 0.278 -0.061 0 -0.138 0.813 -0.208 0.919 -0.08M5.577 11.959c0.056 0.021 0.103 0.066 0.103 0.1 0 0.049 0.056 0.061 0.278 0.061 0.313 0 0.483 0.049 0.483 0.139 0 0.046 0.047 0.061 0.197 0.061 0.152 0 0.224 0.023 0.316 0.1 0.066 0.055 0.156 0.1 0.201 0.1 0.134 0 0.287 0.074 0.287 0.139 0 0.041 0.039 0.061 0.122 0.061 0.077 0 0.159 0.037 0.222 0.1 0.055 0.055 0.133 0.1 0.174 0.1s0.103 0.045 0.139 0.1c0.04 0.061 0.103 0.1 0.162 0.1 0.094 0 0.222 0.092 0.222 0.16 0 0.019 0.041 0.04 0.09 0.047a0.113 0.113 0 0 1 0.103 0.103c0.009 0.061 0.04 0.09 0.1 0.091 0.109 0.001 0.707 0.531 0.988 0.874a5.94 5.94 0 0 0 0.21 0.241c0.061 0.065 0.11 0.154 0.11 0.198 0 0.053 0.031 0.085 0.09 0.093a0.113 0.113 0 0 1 0.103 0.103c0.007 0.049 0.028 0.09 0.047 0.09 0.074 0 0.16 0.131 0.16 0.244 0 0.089 0.024 0.128 0.1 0.156 0.06 0.023 0.1 0.069 0.1 0.117 0 0.044 0.045 0.124 0.1 0.179 0.063 0.063 0.1 0.145 0.1 0.222 0 0.083 0.02 0.122 0.061 0.122 0.068 0 0.139 0.154 0.139 0.301 0 0.053 0.045 0.144 0.1 0.203 0.074 0.081 0.1 0.152 0.1 0.28 0 0.131 0.024 0.197 0.1 0.273 0.088 0.088 0.1 0.134 0.1 0.38 0 0.245 0.013 0.293 0.1 0.38 0.114 0.114 0.152 0.755 0.052 0.856 -0.101 0.101 -0.742 0.062 -0.856 -0.052 -0.088 -0.088 -0.135 -0.1 -0.38 -0.1 -0.246 0 -0.293 -0.013 -0.38 -0.1 -0.076 -0.076 -0.142 -0.1 -0.273 -0.1 -0.128 0 -0.2 -0.026 -0.28 -0.1 -0.059 -0.055 -0.151 -0.1 -0.203 -0.1 -0.146 0 -0.301 -0.071 -0.301 -0.139 0 -0.041 -0.039 -0.061 -0.122 -0.061a0.324 0.324 0 0 1 -0.222 -0.1c-0.055 -0.055 -0.136 -0.1 -0.179 -0.1 -0.048 0 -0.094 -0.04 -0.117 -0.1 -0.029 -0.076 -0.067 -0.1 -0.156 -0.1 -0.112 0 -0.244 -0.086 -0.244 -0.16 0 -0.019 -0.041 -0.04 -0.09 -0.047a0.113 0.113 0 0 1 -0.103 -0.103c-0.008 -0.059 -0.04 -0.09 -0.092 -0.09 -0.076 0 -0.179 -0.078 -0.435 -0.33 -0.061 -0.061 -0.132 -0.11 -0.157 -0.11 -0.025 0 -0.062 -0.045 -0.083 -0.1 -0.021 -0.055 -0.066 -0.1 -0.1 -0.1 -0.034 0 -0.074 -0.031 -0.089 -0.07a0.699 0.699 0 0 0 -0.129 -0.176c-0.252 -0.26 -0.323 -0.354 -0.323 -0.429 0 -0.053 -0.031 -0.084 -0.09 -0.092a0.113 0.113 0 0 1 -0.103 -0.103c-0.007 -0.049 -0.028 -0.09 -0.047 -0.09 -0.074 0 -0.16 -0.131 -0.16 -0.244 0 -0.089 -0.024 -0.128 -0.1 -0.156 -0.06 -0.023 -0.1 -0.069 -0.1 -0.117 0 -0.044 -0.045 -0.124 -0.1 -0.179a0.323 0.323 0 0 1 -0.1 -0.222c0 -0.083 -0.02 -0.122 -0.061 -0.122 -0.065 0 -0.139 -0.152 -0.139 -0.287 0 -0.045 -0.045 -0.135 -0.1 -0.201 -0.077 -0.091 -0.1 -0.164 -0.1 -0.316 0 -0.15 -0.014 -0.197 -0.061 -0.197 -0.09 0 -0.139 -0.17 -0.139 -0.483 0 -0.222 -0.013 -0.278 -0.061 -0.278 -0.131 0 -0.209 -0.793 -0.091 -0.912 0.059 -0.059 0.661 -0.065 0.809 -0.009m14.462 0.02c0.092 0.111 0.039 0.774 -0.069 0.861 -0.078 0.063 -0.09 0.111 -0.09 0.358 0 0.251 -0.012 0.297 -0.1 0.386 -0.076 0.076 -0.1 0.142 -0.1 0.273 0 0.128 -0.026 0.2 -0.1 0.28 -0.055 0.059 -0.1 0.151 -0.1 0.203 0 0.146 -0.071 0.301 -0.139 0.301 -0.041 0 -0.061 0.039 -0.061 0.122a0.324 0.324 0 0 1 -0.1 0.222c-0.055 0.055 -0.1 0.136 -0.1 0.179 0 0.048 -0.04 0.094 -0.1 0.117 -0.071 0.027 -0.1 0.068 -0.1 0.141a0.309 0.309 0 0 1 -0.095 0.191 0.401 0.401 0 0 0 -0.111 0.168c-0.009 0.046 -0.053 0.085 -0.105 0.092 -0.059 0.008 -0.089 0.041 -0.089 0.092 0 0.076 -0.078 0.179 -0.33 0.435 -0.061 0.061 -0.11 0.132 -0.11 0.157 0 0.025 -0.045 0.062 -0.1 0.083 -0.055 0.021 -0.1 0.066 -0.1 0.1 0 0.034 -0.031 0.074 -0.07 0.089a0.699 0.699 0 0 0 -0.176 0.129c-0.26 0.252 -0.354 0.323 -0.429 0.323 -0.052 0 -0.084 0.031 -0.092 0.089 -0.007 0.052 -0.047 0.096 -0.092 0.105a0.396 0.396 0 0 0 -0.168 0.111 0.291 0.291 0 0 1 -0.208 0.095c-0.093 0 -0.122 0.02 -0.132 0.09 -0.008 0.058 -0.045 0.094 -0.104 0.103a0.417 0.417 0 0 0 -0.188 0.11 0.323 0.323 0 0 1 -0.219 0.097c-0.083 0 -0.122 0.02 -0.122 0.061 0 0.068 -0.154 0.139 -0.301 0.139 -0.053 0 -0.144 0.045 -0.203 0.1 -0.081 0.074 -0.152 0.1 -0.28 0.1 -0.131 0 -0.197 0.024 -0.273 0.1 -0.088 0.088 -0.134 0.1 -0.386 0.1 -0.247 0 -0.295 0.012 -0.358 0.09 -0.088 0.107 -0.751 0.161 -0.861 0.069 -0.13 -0.108 -0.059 -0.919 0.08 -0.919 0.049 0 0.061 -0.056 0.061 -0.278 0 -0.313 0.049 -0.483 0.139 -0.483 0.046 0 0.061 -0.046 0.061 -0.182 0 -0.191 0.054 -0.335 0.146 -0.389 0.03 -0.018 0.054 -0.095 0.054 -0.172 0 -0.098 0.03 -0.168 0.1 -0.232 0.055 -0.051 0.1 -0.132 0.1 -0.18s0.045 -0.133 0.1 -0.188 0.1 -0.133 0.1 -0.174 0.045 -0.103 0.1 -0.139c0.061 -0.04 0.1 -0.103 0.1 -0.162 0 -0.094 0.092 -0.222 0.16 -0.222 0.019 0 0.04 -0.041 0.047 -0.09a0.113 0.113 0 0 1 0.103 -0.103c0.064 -0.009 0.09 -0.04 0.09 -0.106 0 -0.051 0.046 -0.136 0.103 -0.188 0.056 -0.052 0.119 -0.135 0.139 -0.184 0.02 -0.049 0.064 -0.09 0.098 -0.09 0.034 0 0.061 -0.018 0.061 -0.039 0 -0.051 0.35 -0.401 0.401 -0.401 0.021 0 0.039 -0.027 0.039 -0.061 0 -0.034 0.041 -0.077 0.09 -0.098 0.049 -0.02 0.133 -0.083 0.184 -0.139 0.052 -0.056 0.136 -0.103 0.188 -0.103 0.066 0 0.097 -0.026 0.106 -0.09a0.113 0.113 0 0 1 0.103 -0.103c0.049 -0.007 0.09 -0.028 0.09 -0.047 0 -0.068 0.128 -0.16 0.222 -0.16 0.059 0 0.122 -0.039 0.162 -0.1 0.036 -0.055 0.099 -0.1 0.139 -0.1s0.119 -0.045 0.174 -0.1 0.139 -0.1 0.188 -0.1c0.048 0 0.129 -0.045 0.18 -0.1a0.291 0.291 0 0 1 0.232 -0.1c0.077 0 0.154 -0.024 0.172 -0.054 0.054 -0.092 0.198 -0.146 0.389 -0.146 0.137 0 0.182 -0.015 0.182 -0.061 0 -0.09 0.17 -0.139 0.483 -0.139 0.222 0 0.278 -0.012 0.278 -0.061 0 -0.138 0.813 -0.208 0.919 -0.08m11.442 11.739 0.198 0.198v1.767l-0.198 0.198 -0.198 0.198H8.716l-0.198 -0.198 -0.198 -0.198v-1.767l0.198 -0.198 0.198 -0.198h22.567l0.198 0.198m-1.65 3.849c0.079 0.079 0.054 0.258 -0.052 0.385 -0.078 0.093 -0.1 0.164 -0.1 0.325 0 0.166 -0.019 0.225 -0.1 0.306 -0.078 0.078 -0.1 0.141 -0.101 0.288 -0.001 0.256 -0.034 0.361 -0.124 0.389 -0.064 0.02 -0.076 0.064 -0.076 0.282 0 0.225 -0.013 0.269 -0.1 0.344 -0.085 0.074 -0.1 0.121 -0.1 0.317 0 0.187 -0.019 0.252 -0.1 0.349 -0.078 0.093 -0.1 0.164 -0.1 0.325 0 0.166 -0.019 0.225 -0.1 0.306 -0.078 0.078 -0.1 0.141 -0.101 0.288 -0.001 0.256 -0.034 0.361 -0.124 0.389 -0.064 0.02 -0.076 0.064 -0.076 0.282 0 0.225 -0.013 0.269 -0.1 0.344 -0.085 0.074 -0.1 0.121 -0.1 0.317 0 0.187 -0.019 0.252 -0.1 0.349 -0.078 0.093 -0.1 0.164 -0.1 0.325 0 0.166 -0.019 0.225 -0.1 0.306 -0.078 0.078 -0.1 0.141 -0.101 0.288 -0.001 0.256 -0.034 0.361 -0.124 0.389 -0.064 0.02 -0.076 0.064 -0.076 0.281 0 0.229 -0.011 0.263 -0.1 0.322 -0.089 0.058 -0.1 0.092 -0.1 0.318 0 0.211 -0.016 0.272 -0.1 0.371 -0.055 0.066 -0.1 0.152 -0.101 0.193 -0.001 0.154 -0.054 0.262 -0.145 0.296 -0.052 0.02 -0.094 0.064 -0.094 0.098 0 0.136 -0.185 0.14 -7.04 0.14 -6.846 0 -7.04 -0.004 -7.04 -0.139 0 -0.034 -0.018 -0.061 -0.04 -0.061 -0.089 0 -0.2 -0.164 -0.2 -0.298 0 -0.076 -0.024 -0.152 -0.054 -0.17 -0.096 -0.057 -0.146 -0.201 -0.146 -0.423 0 -0.18 -0.016 -0.23 -0.1 -0.302 -0.088 -0.076 -0.1 -0.119 -0.1 -0.348 0 -0.202 -0.013 -0.26 -0.059 -0.26 -0.093 0 -0.141 -0.136 -0.141 -0.398 0 -0.191 -0.013 -0.242 -0.061 -0.242 -0.083 0 -0.139 -0.164 -0.139 -0.401 0 -0.122 -0.021 -0.208 -0.054 -0.227 -0.094 -0.056 -0.146 -0.201 -0.146 -0.411 0 -0.165 -0.019 -0.224 -0.1 -0.304 -0.086 -0.086 -0.1 -0.136 -0.1 -0.358 0 -0.2 -0.013 -0.258 -0.059 -0.258 -0.093 0 -0.141 -0.136 -0.141 -0.398 0 -0.191 -0.013 -0.242 -0.061 -0.242 -0.083 0 -0.139 -0.164 -0.139 -0.401 0 -0.122 -0.021 -0.208 -0.054 -0.227 -0.094 -0.056 -0.146 -0.201 -0.146 -0.411 0 -0.165 -0.019 -0.224 -0.1 -0.304 -0.086 -0.086 -0.1 -0.136 -0.1 -0.358 0 -0.2 -0.013 -0.258 -0.059 -0.258 -0.093 0 -0.141 -0.136 -0.141 -0.398 0 -0.191 -0.013 -0.242 -0.061 -0.242 -0.083 0 -0.139 -0.164 -0.139 -0.401 0 -0.122 -0.021 -0.208 -0.054 -0.227 -0.131 -0.077 -0.191 -0.351 -0.098 -0.444 0.07 -0.07 19.594 -0.07 19.664 0" stroke="none" fill="{{ $svgColor }}" fill-rule="evenodd" stroke-width="0.1" />
          </g>
        </svg>