<?xml version="1.0" encoding="UTF-8"?>
<svg xmlns="http://www.w3.org/2000/svg" xmlns:xlink="http://www.w3.org/1999/xlink" width="48px" height="48px" viewBox="0 0 48 48" version="1.1">
<defs>
<linearGradient id="linear0" gradientUnits="userSpaceOnUse" x1="128" y1="10.1404" x2="128" y2="256" gradientTransform="matrix(0.1875,0,0,0.1875,0,0)">
<stop offset="0" style="stop-color:rgb(69.803922%,88.235294%,59.607843%);stop-opacity:1;"/>
<stop offset="1" style="stop-color:rgb(1.568627%,63.137255%,44.313725%);stop-opacity:1;"/>
</linearGradient>
</defs>
<g id="surface1">
<path style=" stroke:none;fill-rule:nonzero;fill:rgb(14.117647%,16.078431%,21.960784%);fill-opacity:1;" d="M 11.25 0 L 36.75 0 C 42.964844 0 48 5.035156 48 11.25 L 48 36.75 C 48 42.964844 42.964844 48 36.75 48 L 11.25 48 C 5.035156 48 0 42.964844 0 36.75 L 0 11.25 C 0 5.035156 5.035156 0 11.25 0 Z M 11.25 0 "/>
<path style=" stroke:none;fill-rule:nonzero;fill:url(#linear0);" d="M 11.25 0 L 36.75 0 C 42.964844 0 48 5.035156 48 11.25 L 48 36.75 C 48 42.964844 42.964844 48 36.75 48 L 11.25 48 C 5.035156 48 0 42.964844 0 36.75 L 0 11.25 C 0 5.035156 5.035156 0 11.25 0 Z M 11.25 0 "/>
<path style=" stroke:none;fill-rule:nonzero;fill:rgb(94.901961%,97.254902%,96.470588%);fill-opacity:1;" d="M 17.980469 20.035156 C 17.675781 20.503906 17.382812 20.976562 17.097656 21.449219 C 16.789062 20.59375 16.515625 19.75 16.28125 18.929688 C 17.109375 18.808594 17.988281 18.714844 18.914062 18.652344 C 18.597656 19.101562 18.289062 19.5625 17.980469 20.035156 Z M 40.832031 21.691406 C 39.917969 20.8125 38.609375 20.007812 36.941406 19.296875 C 33.636719 17.890625 29.207031 16.976562 24.46875 16.726562 C 23.898438 16.699219 23.339844 16.675781 22.800781 16.667969 C 26.417969 12.351562 29.910156 10.054688 31.945312 9.976562 C 32.375 9.960938 32.734375 10.046875 33.019531 10.230469 C 33.972656 10.847656 34.234375 12.765625 33.726562 15.363281 C 33.625 15.875 33.957031 16.371094 34.472656 16.472656 C 34.984375 16.574219 35.480469 16.238281 35.582031 15.726562 C 36.457031 11.265625 35.230469 9.414062 34.050781 8.644531 C 33.433594 8.242188 32.699219 8.058594 31.871094 8.089844 C 28.742188 8.207031 24.359375 11.542969 20.359375 16.683594 C 18.777344 16.738281 17.25 16.875 15.824219 17.089844 C 15.667969 16.363281 15.546875 15.65625 15.464844 14.980469 C 15.105469 12.023438 15.542969 9.925781 16.640625 9.367188 C 16.816406 9.277344 17.007812 9.226562 17.226562 9.207031 C 18.207031 9.136719 19.585938 9.792969 21.113281 11.0625 C 21.515625 11.394531 22.113281 11.339844 22.445312 10.9375 C 22.777344 10.535156 22.722656 9.941406 22.320312 9.605469 C 20.363281 7.976562 18.601562 7.210938 17.085938 7.324219 C 16.617188 7.359375 16.179688 7.480469 15.78125 7.683594 C 14.761719 8.203125 14.066406 9.195312 13.714844 10.636719 C 13.410156 11.871094 13.367188 13.40625 13.585938 15.207031 C 13.671875 15.917969 13.800781 16.660156 13.960938 17.421875 C 12.84375 17.65625 11.8125 17.945312 10.882812 18.28125 C 6.824219 19.746094 5.886719 21.679688 5.816406 23.039062 C 5.75 24.34375 6.414062 26.28125 9.976562 28.117188 C 10.441406 28.355469 11.011719 28.171875 11.25 27.710938 C 11.488281 27.246094 11.308594 26.675781 10.84375 26.4375 C 8.792969 25.378906 7.652344 24.179688 7.703125 23.140625 C 7.78125 21.675781 10.234375 20.128906 14.414062 19.253906 C 14.800781 20.652344 15.296875 22.105469 15.890625 23.578125 C 14.390625 26.394531 13.296875 29.171875 12.726562 31.644531 C 12.320312 33.410156 12.203125 34.941406 12.375 36.199219 C 12.574219 37.667969 13.164062 38.730469 14.121094 39.351562 C 14.609375 39.671875 15.265625 39.917969 16.132812 39.917969 C 17.386719 39.917969 19.074219 39.394531 21.304688 37.804688 C 21.726562 37.5 21.828125 36.910156 21.523438 36.488281 C 21.222656 36.0625 20.628906 35.960938 20.207031 36.265625 C 18.007812 37.835938 16.117188 38.394531 15.152344 37.765625 C 14.121094 37.097656 13.902344 34.96875 14.570312 32.066406 C 15.011719 30.144531 15.800781 28.015625 16.871094 25.816406 C 17.101562 26.316406 17.34375 26.8125 17.597656 27.308594 C 19.75 31.539062 22.386719 35.21875 25.015625 37.667969 C 26.34375 38.902344 27.613281 39.773438 28.785156 40.253906 C 29.5 40.542969 30.167969 40.6875 30.789062 40.6875 C 31.367188 40.6875 31.898438 40.566406 32.390625 40.316406 C 33.371094 39.816406 34.054688 38.871094 34.417969 37.507812 C 34.730469 36.34375 34.800781 34.890625 34.625 33.1875 C 34.285156 29.839844 33.019531 25.757812 31.0625 21.691406 C 30.839844 21.21875 30.273438 21.023438 29.804688 21.246094 C 29.332031 21.472656 29.132812 22.039062 29.359375 22.507812 C 31.222656 26.382812 32.425781 30.242188 32.746094 33.378906 C 33.027344 36.136719 32.574219 38.097656 31.53125 38.632812 C 30.433594 39.1875 28.484375 38.3125 26.304688 36.285156 C 23.832031 33.980469 21.335938 30.488281 19.28125 26.453125 C 18.8125 25.527344 18.378906 24.601562 17.984375 23.6875 C 18.472656 22.8125 19.003906 21.933594 19.566406 21.0625 C 20.144531 20.175781 20.726562 19.339844 21.3125 18.550781 C 21.46875 18.550781 21.625 18.550781 21.78125 18.546875 C 22.59375 18.546875 23.464844 18.570312 24.371094 18.617188 C 28.890625 18.851562 33.09375 19.714844 36.203125 21.035156 C 38.933594 22.199219 40.527344 23.628906 40.464844 24.859375 C 40.410156 25.902344 39.144531 26.980469 36.988281 27.816406 C 36.5 28.003906 36.257812 28.554688 36.449219 29.039062 C 36.59375 29.414062 36.949219 29.644531 37.332031 29.644531 C 37.445312 29.644531 37.558594 29.621094 37.671875 29.578125 C 41.417969 28.125 42.285156 26.261719 42.351562 24.957031 C 42.414062 23.816406 41.902344 22.714844 40.832031 21.691406 Z M 40.832031 21.691406 "/>
<path style=" stroke:none;fill-rule:nonzero;fill:rgb(94.509804%,97.254902%,95.294118%);fill-opacity:1;" d="M 22.132812 24.253906 C 22.132812 25.394531 23.058594 26.320312 24.199219 26.320312 C 25.339844 26.320312 26.265625 25.394531 26.265625 24.253906 C 26.265625 23.109375 25.339844 22.183594 24.199219 22.183594 C 23.058594 22.183594 22.132812 23.109375 22.132812 24.253906 Z M 22.132812 24.253906 "/>
</g>
</svg>
