<?xml version="1.0" encoding="UTF-8"?>
<svg xmlns="http://www.w3.org/2000/svg" xmlns:xlink="http://www.w3.org/1999/xlink" width="48px" height="48px" viewBox="0 0 48 48" version="1.1">
<g id="surface1">
<path style=" stroke:none;fill-rule:nonzero;fill:rgb(14.117647%,16.078431%,21.960784%);fill-opacity:1;" d="M 11.25 0 L 36.75 0 C 42.964844 0 48 5.035156 48 11.25 L 48 36.75 C 48 42.964844 42.964844 48 36.75 48 L 11.25 48 C 5.035156 48 0 42.964844 0 36.75 L 0 11.25 C 0 5.035156 5.035156 0 11.25 0 Z M 11.25 0 "/>
<path style=" stroke:none;fill-rule:nonzero;fill:rgb(100%,100%,100%);fill-opacity:1;" d="M 42.941406 16.59375 L 24.945312 4.597656 C 24.332031 4.21875 23.675781 4.214844 23.054688 4.597656 L 5.058594 16.59375 C 4.597656 16.902344 4.3125 17.453125 4.3125 18 L 4.3125 29.996094 C 4.3125 30.546875 4.597656 31.097656 5.058594 31.402344 L 23.054688 43.402344 C 23.667969 43.78125 24.324219 43.785156 24.945312 43.402344 L 42.941406 31.402344 C 43.402344 31.097656 43.6875 30.546875 43.6875 29.996094 L 43.6875 18 C 43.6875 17.453125 43.402344 16.902344 42.941406 16.59375 Z M 25.691406 9.167969 L 38.941406 18 L 33.03125 21.957031 L 25.691406 17.054688 Z M 22.308594 9.167969 L 22.308594 17.054688 L 14.96875 21.957031 L 9.058594 18 Z M 7.695312 21.164062 L 11.9375 24 L 7.695312 26.832031 Z M 22.308594 38.832031 L 9.058594 29.996094 L 14.96875 26.042969 L 22.308594 30.941406 Z M 24 28 L 18.023438 24 L 24 20 L 29.976562 24 Z M 25.691406 38.832031 L 25.691406 30.941406 L 33.03125 26.042969 L 38.941406 29.996094 Z M 40.304688 26.832031 L 36.0625 24 L 40.304688 21.164062 Z M 40.304688 26.832031 "/>
</g>
</svg>
