<?xml version="1.0" encoding="UTF-8"?>
<svg xmlns="http://www.w3.org/2000/svg" xmlns:xlink="http://www.w3.org/1999/xlink" width="48px" height="48px" viewBox="0 0 48 48" version="1.1">
<g id="surface1">
<path style=" stroke:none;fill-rule:nonzero;fill:rgb(58.431373%,23.529412%,67.843137%);fill-opacity:1;" d="M 11.25 0 L 36.75 0 C 42.964844 0 48 5.035156 48 11.25 L 48 36.75 C 48 42.964844 42.964844 48 36.75 48 L 11.25 48 C 5.035156 48 0 42.964844 0 36.75 L 0 11.25 C 0 5.035156 5.035156 0 11.25 0 Z M 11.25 0 "/>
<path style=" stroke:none;fill-rule:nonzero;fill:rgb(100%,100%,100%);fill-opacity:1;" d="M 36.644531 18.875 L 36.644531 21.402344 L 39.171875 21.402344 L 39.171875 18.875 L 40.433594 18.875 L 40.433594 21.402344 L 42.960938 21.402344 L 42.960938 22.664062 L 40.433594 22.664062 L 40.433594 25.191406 L 42.960938 25.191406 L 42.960938 26.453125 L 40.433594 26.453125 L 40.433594 28.980469 L 39.171875 28.980469 L 39.171875 26.453125 L 36.644531 26.453125 L 36.644531 28.980469 L 35.382812 28.980469 L 35.382812 26.453125 L 32.855469 26.453125 L 32.855469 25.191406 L 35.382812 25.191406 L 35.382812 22.664062 L 32.855469 22.664062 L 32.855469 21.402344 L 35.382812 21.402344 L 35.382812 18.875 Z M 39.171875 22.664062 L 36.644531 22.664062 L 36.644531 25.191406 L 39.171875 25.191406 Z M 39.171875 22.664062 "/>
<path style=" stroke:none;fill-rule:nonzero;fill:rgb(100%,100%,100%);fill-opacity:1;" d="M 22.875 6.1875 C 29.464844 6.1875 35.21875 9.765625 38.300781 15.085938 L 38.269531 15.035156 L 30.515625 19.5 C 28.988281 16.910156 26.1875 15.167969 22.976562 15.128906 L 22.875 15.128906 C 17.976562 15.128906 14.003906 19.101562 14.003906 24 C 14.003906 25.601562 14.433594 27.101562 15.175781 28.402344 C 16.703125 31.070312 19.578125 32.871094 22.875 32.871094 C 26.191406 32.871094 29.082031 31.046875 30.605469 28.347656 L 30.566406 28.414062 L 38.308594 32.898438 C 35.261719 38.171875 29.585938 41.742188 23.074219 41.8125 L 22.875 41.8125 C 16.265625 41.8125 10.496094 38.210938 7.421875 32.863281 C 5.921875 30.253906 5.0625 27.226562 5.0625 24 C 5.0625 14.164062 13.039062 6.1875 22.875 6.1875 Z M 22.875 6.1875 "/>
</g>
</svg>
