<?xml version="1.0" encoding="UTF-8"?>
<svg xmlns="http://www.w3.org/2000/svg" xmlns:xlink="http://www.w3.org/1999/xlink" width="48px" height="48px" viewBox="0 0 48 48" version="1.1">
<g id="surface1">
<path style=" stroke:none;fill-rule:nonzero;fill:rgb(0.784314%,46.666667%,74.117647%);fill-opacity:1;" d="M 11.25 0 L 36.75 0 C 42.964844 0 48 5.035156 48 11.25 L 48 36.75 C 48 42.964844 42.964844 48 36.75 48 L 11.25 48 C 5.035156 48 0 42.964844 0 36.75 L 0 11.25 C 0 5.035156 5.035156 0 11.25 0 Z M 11.25 0 "/>
<path style=" stroke:none;fill-rule:nonzero;fill:rgb(92.156863%,92.156863%,92.156863%);fill-opacity:1;" d="M 10.078125 19.246094 L 10.617188 25.234375 L 24.019531 25.234375 L 24.019531 19.246094 Z M 10.078125 19.246094 "/>
<path style=" stroke:none;fill-rule:nonzero;fill:rgb(92.156863%,92.156863%,92.156863%);fill-opacity:1;" d="M 24.019531 7.125 L 9 7.125 L 9.542969 13.113281 L 24.019531 13.113281 Z M 24.019531 7.125 "/>
<path style=" stroke:none;fill-rule:nonzero;fill:rgb(92.156863%,92.156863%,92.156863%);fill-opacity:1;" d="M 24.019531 41.03125 L 24.019531 34.800781 L 23.992188 34.808594 L 17.320312 33.007812 L 16.894531 28.230469 L 10.882812 28.230469 L 11.722656 37.632812 L 23.992188 41.039062 Z M 24.019531 41.03125 "/>
<path style=" stroke:none;fill-rule:nonzero;fill:rgb(100%,100%,100%);fill-opacity:1;" d="M 31.371094 25.234375 L 30.675781 33.003906 L 23.996094 34.804688 L 23.996094 41.039062 L 36.273438 37.632812 L 36.367188 36.621094 L 37.773438 20.855469 L 37.917969 19.246094 L 39 7.125 L 23.996094 7.125 L 23.996094 13.113281 L 32.4375 13.113281 L 31.890625 19.246094 L 23.996094 19.246094 L 23.996094 25.234375 Z M 31.371094 25.234375 "/>
</g>
</svg>
