<?xml version="1.0" encoding="UTF-8"?>
<svg xmlns="http://www.w3.org/2000/svg" xmlns:xlink="http://www.w3.org/1999/xlink" width="48px" height="48px" viewBox="0 0 48 48" version="1.1">
<g id="surface1">
<path style=" stroke:none;fill-rule:nonzero;fill:rgb(14.117647%,16.078431%,21.960784%);fill-opacity:1;" d="M 11.25 0 L 36.75 0 C 42.964844 0 48 5.035156 48 11.25 L 48 36.75 C 48 42.964844 42.964844 48 36.75 48 L 11.25 48 C 5.035156 48 0 42.964844 0 36.75 L 0 11.25 C 0 5.035156 5.035156 0 11.25 0 Z M 11.25 0 "/>
<path style=" stroke:none;fill-rule:nonzero;fill:rgb(100%,100%,100%);fill-opacity:1;" d="M 24 5.625 C 13.644531 5.625 5.25 14.019531 5.25 24.375 C 5.25 32.660156 10.621094 39.6875 18.074219 42.167969 C 19.007812 42.339844 19.355469 41.761719 19.355469 41.265625 C 19.355469 40.816406 19.335938 39.339844 19.328125 37.773438 C 14.113281 38.910156 13.011719 35.5625 13.011719 35.5625 C 12.15625 33.394531 10.929688 32.820312 10.929688 32.820312 C 9.226562 31.65625 11.058594 31.679688 11.058594 31.679688 C 12.941406 31.8125 13.933594 33.609375 13.933594 33.609375 C 15.605469 36.476562 18.316406 35.648438 19.386719 35.167969 C 19.554688 33.957031 20.042969 33.128906 20.578125 32.664062 C 16.414062 32.1875 12.035156 30.582031 12.035156 23.394531 C 12.035156 21.347656 12.769531 19.675781 13.96875 18.363281 C 13.773438 17.890625 13.132812 15.984375 14.148438 13.402344 C 14.148438 13.402344 15.722656 12.898438 19.308594 15.324219 C 20.804688 14.90625 22.40625 14.699219 24 14.691406 C 25.59375 14.699219 27.199219 14.90625 28.695312 15.324219 C 32.277344 12.898438 33.847656 13.402344 33.847656 13.402344 C 34.867188 15.984375 34.226562 17.890625 34.03125 18.363281 C 35.234375 19.675781 35.960938 21.347656 35.960938 23.394531 C 35.960938 30.597656 31.574219 32.183594 27.398438 32.648438 C 28.074219 33.230469 28.671875 34.371094 28.671875 36.121094 C 28.671875 38.628906 28.648438 40.648438 28.648438 41.265625 C 28.648438 41.765625 28.988281 42.347656 29.9375 42.164062 C 37.382812 39.683594 42.75 32.65625 42.75 24.375 C 42.75 14.019531 34.355469 5.625 24 5.625 Z M 12.273438 32.335938 C 12.230469 32.429688 12.085938 32.457031 11.953125 32.390625 C 11.816406 32.332031 11.738281 32.203125 11.78125 32.109375 C 11.824219 32.015625 11.96875 31.988281 12.105469 32.050781 C 12.242188 32.113281 12.320312 32.242188 12.273438 32.335938 Z M 13.195312 33.15625 C 13.105469 33.242188 12.929688 33.203125 12.8125 33.070312 C 12.6875 32.941406 12.667969 32.765625 12.757812 32.679688 C 12.847656 32.597656 13.019531 32.636719 13.140625 32.769531 C 13.265625 32.902344 13.289062 33.074219 13.195312 33.15625 Z M 13.828125 34.210938 C 13.710938 34.289062 13.523438 34.214844 13.410156 34.050781 C 13.292969 33.882812 13.292969 33.683594 13.410156 33.601562 C 13.527344 33.523438 13.710938 33.59375 13.832031 33.757812 C 13.945312 33.929688 13.945312 34.128906 13.828125 34.210938 Z M 14.898438 35.429688 C 14.792969 35.542969 14.574219 35.511719 14.414062 35.359375 C 14.25 35.207031 14.207031 34.992188 14.308594 34.878906 C 14.414062 34.765625 14.632812 34.796875 14.792969 34.953125 C 14.957031 35.101562 15.007812 35.316406 14.898438 35.429688 Z M 16.28125 35.84375 C 16.234375 35.988281 16.023438 36.054688 15.8125 35.992188 C 15.601562 35.929688 15.460938 35.757812 15.503906 35.609375 C 15.546875 35.460938 15.761719 35.390625 15.972656 35.457031 C 16.1875 35.523438 16.324219 35.691406 16.28125 35.84375 Z M 17.855469 36.015625 C 17.859375 36.171875 17.679688 36.300781 17.457031 36.300781 C 17.234375 36.308594 17.050781 36.183594 17.046875 36.03125 C 17.046875 35.875 17.226562 35.746094 17.449219 35.742188 C 17.671875 35.738281 17.855469 35.863281 17.855469 36.015625 Z M 19.402344 35.957031 C 19.425781 36.109375 19.273438 36.261719 19.050781 36.304688 C 18.832031 36.34375 18.632812 36.25 18.605469 36.101562 C 18.578125 35.945312 18.734375 35.792969 18.953125 35.75 C 19.175781 35.714844 19.371094 35.804688 19.402344 35.957031 Z M 19.402344 35.957031 "/>
</g>
</svg>
