<?xml version="1.0" encoding="UTF-8"?>
<svg xmlns="http://www.w3.org/2000/svg" xmlns:xlink="http://www.w3.org/1999/xlink" width="48px" height="48px" viewBox="0 0 48 48" version="1.1">
<g id="surface1">
<path style=" stroke:none;fill-rule:nonzero;fill:rgb(94.117647%,85.882353%,30.980392%);fill-opacity:1;" d="M 11.25 0 L 36.75 0 C 42.964844 0 48 5.035156 48 11.25 L 48 36.75 C 48 42.964844 42.964844 48 36.75 48 L 11.25 48 C 5.035156 48 0 42.964844 0 36.75 L 0 11.25 C 0 5.035156 5.035156 0 11.25 0 Z M 11.25 0 "/>
<path style=" stroke:none;fill-rule:nonzero;fill:rgb(19.607843%,20%,18.823529%);fill-opacity:1;" d="M 12.621094 40.113281 L 16.292969 37.890625 C 17.003906 39.144531 17.648438 40.207031 19.195312 40.207031 C 20.675781 40.207031 21.609375 39.628906 21.609375 37.375 L 21.609375 22.035156 L 26.121094 22.035156 L 26.121094 37.4375 C 26.121094 42.109375 23.382812 44.234375 19.386719 44.234375 C 15.777344 44.234375 13.683594 42.367188 12.621094 40.113281 "/>
<path style=" stroke:none;fill-rule:nonzero;fill:rgb(19.607843%,20%,18.823529%);fill-opacity:1;" d="M 28.570312 39.628906 L 32.246094 37.503906 C 33.210938 39.082031 34.46875 40.242188 36.691406 40.242188 C 38.558594 40.242188 39.75 39.308594 39.75 38.019531 C 39.75 36.472656 38.527344 35.921875 36.464844 35.023438 L 35.335938 34.539062 C 32.082031 33.152344 29.925781 31.414062 29.925781 27.738281 C 29.925781 24.355469 32.503906 21.777344 36.53125 21.777344 C 39.398438 21.777344 41.460938 22.777344 42.941406 25.386719 L 39.429688 27.644531 C 38.65625 26.257812 37.820312 25.710938 36.53125 25.710938 C 35.207031 25.710938 34.371094 26.546875 34.371094 27.644531 C 34.371094 28.996094 35.207031 29.542969 37.140625 30.382812 L 38.269531 30.863281 C 42.105469 32.507812 44.261719 34.183594 44.261719 37.953125 C 44.261719 42.011719 41.074219 44.238281 36.789062 44.238281 C 32.597656 44.238281 29.890625 42.238281 28.570312 39.628906 "/>
</g>
</svg>
