<?xml version="1.0" encoding="UTF-8"?>
<svg xmlns="http://www.w3.org/2000/svg" xmlns:xlink="http://www.w3.org/1999/xlink" width="48px" height="48px" viewBox="0 0 48 48" version="1.1">
<g id="surface1">
<path style=" stroke:none;fill-rule:nonzero;fill:rgb(14.117647%,16.078431%,21.960784%);fill-opacity:1;" d="M 11.25 0 L 36.75 0 C 42.964844 0 48 5.035156 48 11.25 L 48 36.75 C 48 42.964844 42.964844 48 36.75 48 L 11.25 48 C 5.035156 48 0 42.964844 0 36.75 L 0 11.25 C 0 5.035156 5.035156 0 11.25 0 Z M 11.25 0 "/>
<path style=" stroke:none;fill-rule:evenodd;fill:rgb(100%,17.647059%,12.54902%);fill-opacity:1;" d="M 40.472656 14.683594 C 40.484375 14.730469 40.488281 14.777344 40.488281 14.824219 L 40.488281 22.171875 C 40.488281 22.269531 40.464844 22.359375 40.417969 22.441406 C 40.371094 22.523438 40.304688 22.589844 40.222656 22.636719 L 34.140625 26.191406 L 34.140625 33.230469 C 34.140625 33.421875 34.039062 33.597656 33.875 33.695312 L 21.175781 41.109375 C 21.148438 41.125 21.117188 41.136719 21.085938 41.148438 C 21.074219 41.152344 21.0625 41.15625 21.050781 41.160156 C 20.960938 41.183594 20.867188 41.183594 20.777344 41.160156 C 20.765625 41.15625 20.75 41.148438 20.738281 41.144531 C 20.707031 41.132812 20.675781 41.125 20.648438 41.109375 L 7.953125 33.695312 C 7.871094 33.648438 7.804688 33.582031 7.757812 33.5 C 7.710938 33.417969 7.6875 33.324219 7.6875 33.230469 L 7.6875 11.179688 C 7.6875 11.132812 7.695312 11.085938 7.707031 11.039062 C 7.710938 11.023438 7.71875 11.011719 7.722656 10.996094 C 7.734375 10.964844 7.742188 10.9375 7.757812 10.910156 C 7.769531 10.894531 7.78125 10.878906 7.792969 10.863281 C 7.808594 10.84375 7.824219 10.820312 7.839844 10.800781 C 7.855469 10.785156 7.875 10.773438 7.894531 10.761719 C 7.914062 10.746094 7.929688 10.726562 7.953125 10.714844 L 14.300781 7.007812 C 14.382812 6.960938 14.472656 6.9375 14.566406 6.9375 C 14.65625 6.9375 14.75 6.960938 14.828125 7.007812 L 21.179688 10.714844 C 21.199219 10.730469 21.21875 10.746094 21.238281 10.761719 C 21.253906 10.773438 21.273438 10.785156 21.289062 10.800781 C 21.308594 10.820312 21.320312 10.84375 21.335938 10.863281 C 21.347656 10.878906 21.363281 10.894531 21.371094 10.910156 C 21.386719 10.9375 21.394531 10.964844 21.40625 10.996094 C 21.410156 11.011719 21.421875 11.023438 21.425781 11.039062 C 21.4375 11.085938 21.441406 11.132812 21.445312 11.179688 L 21.445312 24.953125 L 26.734375 21.863281 L 26.734375 14.824219 C 26.734375 14.777344 26.738281 14.730469 26.753906 14.683594 C 26.757812 14.667969 26.765625 14.652344 26.769531 14.636719 C 26.78125 14.609375 26.789062 14.582031 26.804688 14.554688 C 26.816406 14.539062 26.828125 14.523438 26.839844 14.507812 C 26.855469 14.484375 26.871094 14.464844 26.886719 14.445312 C 26.902344 14.429688 26.921875 14.417969 26.941406 14.40625 C 26.960938 14.390625 26.976562 14.371094 26.996094 14.359375 L 27 14.359375 L 33.347656 10.652344 C 33.429688 10.605469 33.519531 10.582031 33.613281 10.582031 C 33.703125 10.582031 33.796875 10.605469 33.875 10.652344 L 40.226562 14.359375 C 40.246094 14.371094 40.265625 14.390625 40.285156 14.40625 C 40.300781 14.417969 40.320312 14.429688 40.335938 14.445312 C 40.355469 14.464844 40.367188 14.484375 40.382812 14.507812 C 40.394531 14.523438 40.410156 14.539062 40.417969 14.554688 C 40.433594 14.582031 40.441406 14.609375 40.453125 14.636719 C 40.457031 14.652344 40.46875 14.667969 40.472656 14.683594 Z M 39.429688 21.863281 L 39.429688 15.75 L 37.210938 17.046875 L 34.140625 18.839844 L 34.140625 24.953125 L 39.433594 21.863281 Z M 33.082031 32.917969 L 33.082031 26.804688 L 30.0625 28.550781 L 21.441406 33.542969 L 21.441406 39.714844 Z M 8.746094 12.109375 L 8.746094 32.917969 L 20.382812 39.714844 L 20.382812 33.542969 L 14.304688 30.050781 L 14.300781 30.050781 C 14.277344 30.039062 14.261719 30.019531 14.242188 30.003906 C 14.226562 29.992188 14.207031 29.980469 14.191406 29.96875 L 14.191406 29.964844 C 14.175781 29.949219 14.164062 29.925781 14.148438 29.910156 C 14.132812 29.890625 14.117188 29.875 14.109375 29.855469 L 14.105469 29.855469 C 14.09375 29.835938 14.089844 29.808594 14.078125 29.789062 C 14.070312 29.765625 14.058594 29.75 14.054688 29.726562 C 14.046875 29.699219 14.046875 29.675781 14.042969 29.648438 C 14.042969 29.628906 14.035156 29.609375 14.035156 29.585938 L 14.035156 15.195312 L 10.96875 13.40625 Z M 14.566406 8.09375 L 9.277344 11.179688 L 14.566406 14.269531 L 19.851562 11.179688 Z M 17.316406 27.359375 L 20.386719 25.570312 L 20.386719 12.109375 L 18.164062 13.40625 L 15.09375 15.195312 L 15.09375 28.660156 Z M 33.613281 11.738281 L 28.324219 14.824219 L 33.613281 17.910156 L 38.898438 14.824219 Z M 33.082031 18.839844 L 30.011719 17.046875 L 27.792969 15.75 L 27.792969 21.863281 L 30.859375 23.65625 L 33.082031 24.953125 Z M 20.914062 32.613281 L 28.671875 28.121094 L 32.546875 25.878906 L 27.261719 22.792969 L 21.179688 26.34375 L 15.632812 29.582031 Z M 20.914062 32.613281 "/>
</g>
</svg>
