<?xml version="1.0" encoding="UTF-8"?>
<svg xmlns="http://www.w3.org/2000/svg" xmlns:xlink="http://www.w3.org/1999/xlink" width="48px" height="48px" viewBox="0 0 48 48" version="1.1">
<defs>
<clipPath id="clip1">
  <path d="M 7.125 7.125 L 40.875 7.125 L 40.875 40.875 L 7.125 40.875 Z M 7.125 7.125 "/>
</clipPath>
</defs>
<g id="surface1">
<path style=" stroke:none;fill-rule:nonzero;fill:rgb(14.117647%,16.078431%,21.960784%);fill-opacity:1;" d="M 11.25 0 L 36.75 0 C 42.964844 0 48 5.035156 48 11.25 L 48 36.75 C 48 42.964844 42.964844 48 36.75 48 L 11.25 48 C 5.035156 48 0 42.964844 0 36.75 L 0 11.25 C 0 5.035156 5.035156 0 11.25 0 Z M 11.25 0 "/>
<g clip-path="url(#clip1)" clip-rule="nonzero">
<path style=" stroke:none;fill-rule:evenodd;fill:rgb(100%,100%,100%);fill-opacity:1;" d="M 38.210938 33.414062 C 36.378906 33.363281 34.953125 33.550781 33.757812 34.054688 C 33.414062 34.191406 32.863281 34.191406 32.820312 34.625 C 33.003906 34.804688 33.023438 35.101562 33.1875 35.355469 C 33.460938 35.8125 33.945312 36.425781 34.378906 36.746094 L 35.847656 37.792969 C 36.742188 38.339844 37.753906 38.660156 38.625 39.207031 C 39.128906 39.527344 39.636719 39.9375 40.140625 40.28125 C 40.398438 40.464844 40.554688 40.761719 40.875 40.875 L 40.875 40.804688 C 40.714844 40.601562 40.667969 40.304688 40.507812 40.074219 L 39.820312 39.414062 C 39.152344 38.523438 38.328125 37.75 37.433594 37.109375 C 36.695312 36.609375 35.089844 35.925781 34.792969 35.082031 L 34.746094 35.03125 C 35.25 34.976562 35.847656 34.800781 36.332031 34.664062 C 37.113281 34.460938 37.824219 34.503906 38.625 34.300781 L 39.726562 33.980469 L 39.726562 33.773438 C 39.316406 33.363281 39.015625 32.816406 38.582031 32.429688 C 37.410156 31.425781 36.125 30.445312 34.792969 29.625 C 34.082031 29.167969 33.164062 28.871094 32.40625 28.484375 C 32.128906 28.347656 31.671875 28.277344 31.511719 28.050781 C 31.097656 27.550781 30.867188 26.886719 30.570312 26.292969 L 28.6875 22.324219 C 28.273438 21.433594 28.019531 20.546875 27.515625 19.722656 C 25.152344 15.847656 22.582031 13.496094 18.632812 11.191406 C 17.785156 10.714844 16.773438 10.507812 15.699219 10.257812 L 13.980469 10.164062 C 13.609375 10.003906 13.246094 9.570312 12.921875 9.367188 C 11.613281 8.546875 8.238281 6.765625 7.277344 9.109375 C 6.65625 10.59375 8.195312 12.054688 8.714844 12.804688 C 9.105469 13.332031 9.609375 13.921875 9.886719 14.515625 C 10.042969 14.90625 10.09375 15.316406 10.253906 15.726562 C 10.621094 16.730469 10.964844 17.847656 11.449219 18.785156 C 11.703125 19.261719 11.976562 19.765625 12.296875 20.199219 C 12.480469 20.453125 12.800781 20.5625 12.871094 20.972656 C 12.546875 21.429688 12.527344 22.113281 12.34375 22.683594 C 11.515625 25.261719 11.835938 28.457031 13.007812 30.355469 C 13.375 30.925781 14.242188 32.179688 15.417969 31.699219 C 16.453125 31.289062 16.222656 29.988281 16.519531 28.847656 C 16.589844 28.574219 16.542969 28.390625 16.679688 28.210938 L 16.679688 28.261719 L 17.621094 30.152344 C 18.332031 31.269531 19.574219 32.433594 20.605469 33.210938 C 21.15625 33.621094 21.59375 34.328125 22.28125 34.578125 L 22.28125 34.511719 L 22.234375 34.511719 C 22.097656 34.304688 21.890625 34.214844 21.707031 34.054688 C 21.292969 33.644531 20.835938 33.140625 20.511719 32.6875 C 19.550781 31.410156 18.703125 29.992188 17.945312 28.535156 C 17.574219 27.828125 17.253906 27.050781 16.957031 26.34375 C 16.816406 26.070312 16.816406 25.660156 16.589844 25.523438 C 16.246094 26.023438 15.738281 26.460938 15.488281 27.074219 C 15.050781 28.054688 15.003906 29.265625 14.84375 30.519531 C 14.75 30.542969 14.792969 30.519531 14.75 30.570312 C 14.019531 30.386719 13.765625 29.632812 13.488281 28.996094 C 12.800781 27.375 12.6875 24.777344 13.28125 22.90625 C 13.445312 22.425781 14.132812 20.921875 13.859375 20.464844 C 13.71875 20.03125 13.261719 19.78125 13.007812 19.4375 C 12.710938 19.003906 12.390625 18.457031 12.183594 17.980469 C 11.632812 16.699219 11.355469 15.285156 10.757812 14.007812 C 10.484375 13.414062 10 12.800781 9.609375 12.253906 C 9.175781 11.636719 8.695312 11.203125 8.347656 10.472656 C 8.234375 10.21875 8.074219 9.8125 8.257812 9.539062 C 8.300781 9.355469 8.394531 9.28125 8.578125 9.242188 C 8.875 8.984375 9.726562 9.308594 10.023438 9.445312 C 10.875 9.789062 11.585938 10.109375 12.296875 10.585938 C 12.617188 10.8125 12.960938 11.246094 13.375 11.363281 L 13.859375 11.363281 C 14.59375 11.523438 15.417969 11.414062 16.105469 11.617188 C 17.324219 12.007812 18.425781 12.574219 19.414062 13.191406 C 22.417969 15.085938 24.898438 17.777344 26.574219 20.996094 C 26.847656 21.519531 26.964844 22 27.214844 22.546875 C 27.699219 23.664062 28.296875 24.804688 28.777344 25.898438 C 29.257812 26.972656 29.71875 28.066406 30.40625 28.957031 C 30.75 29.4375 32.128906 29.6875 32.746094 29.9375 C 33.207031 30.140625 33.917969 30.328125 34.332031 30.578125 C 35.113281 31.054688 35.890625 31.601562 36.625 32.128906 C 36.992188 32.402344 38.140625 32.972656 38.210938 33.425781 Z M 14.804688 13.589844 C 14.488281 13.589844 14.171875 13.625 13.863281 13.707031 L 13.863281 13.757812 L 13.910156 13.757812 C 14.09375 14.121094 14.414062 14.371094 14.644531 14.691406 L 15.171875 15.789062 L 15.21875 15.734375 C 15.539062 15.507812 15.699219 15.144531 15.699219 14.597656 C 15.5625 14.4375 15.539062 14.277344 15.425781 14.117188 C 15.289062 13.890625 14.988281 13.773438 14.804688 13.59375 Z M 14.804688 13.589844 "/>
</g>
</g>
</svg>
