<?xml version="1.0" encoding="UTF-8"?>
<svg xmlns="http://www.w3.org/2000/svg" xmlns:xlink="http://www.w3.org/1999/xlink" width="48px" height="48px" viewBox="0 0 48 48" version="1.1">
<g id="surface1">
<path style=" stroke:none;fill-rule:nonzero;fill:rgb(14.117647%,16.078431%,21.960784%);fill-opacity:1;" d="M 11.25 0 L 36.75 0 C 42.964844 0 48 5.035156 48 11.25 L 48 36.75 C 48 42.964844 42.964844 48 36.75 48 L 11.25 48 C 5.035156 48 0 42.964844 0 36.75 L 0 11.25 C 0 5.035156 5.035156 0 11.25 0 Z M 11.25 0 "/>
<path style=" stroke:none;fill-rule:nonzero;fill:rgb(50.588235%,80.392157%,22.352941%);fill-opacity:1;" d="M 22.476562 5.835938 C 23.398438 5.304688 24.601562 5.304688 25.523438 5.835938 C 30.15625 8.453125 34.792969 11.070312 39.429688 13.691406 C 40.300781 14.179688 40.882812 15.152344 40.875 16.15625 L 40.875 31.914062 C 40.882812 32.960938 40.242188 33.953125 39.320312 34.433594 C 34.699219 37.039062 30.082031 39.644531 25.464844 42.25 C 24.523438 42.789062 23.296875 42.746094 22.386719 42.164062 C 21 41.363281 19.613281 40.5625 18.226562 39.761719 C 17.945312 39.59375 17.625 39.457031 17.425781 39.183594 C 17.601562 38.945312 17.917969 38.914062 18.175781 38.8125 C 18.753906 38.628906 19.285156 38.332031 19.816406 38.046875 C 19.949219 37.953125 20.113281 37.988281 20.242188 38.070312 C 21.425781 38.75 22.601562 39.449219 23.789062 40.121094 C 24.042969 40.269531 24.300781 40.074219 24.515625 39.953125 C 29.050781 37.390625 33.589844 34.839844 38.121094 32.273438 C 38.289062 32.195312 38.382812 32.015625 38.371094 31.832031 C 38.371094 26.632812 38.371094 21.433594 38.371094 16.234375 C 38.390625 16.027344 38.269531 15.835938 38.082031 15.75 C 33.476562 13.15625 28.875 10.558594 24.269531 7.964844 C 24.109375 7.855469 23.890625 7.855469 23.730469 7.964844 C 19.125 10.558594 14.523438 13.160156 9.921875 15.753906 C 9.734375 15.835938 9.605469 16.027344 9.628906 16.234375 C 9.628906 21.433594 9.628906 26.632812 9.628906 31.832031 C 9.613281 32.015625 9.710938 32.191406 9.878906 32.269531 C 11.109375 32.96875 12.339844 33.660156 13.566406 34.351562 C 14.257812 34.726562 15.109375 34.945312 15.871094 34.660156 C 16.546875 34.421875 17.019531 33.734375 17.003906 33.019531 C 17.011719 27.851562 17.003906 22.679688 17.011719 17.515625 C 16.992188 17.285156 17.210938 17.09375 17.433594 17.117188 C 18.023438 17.113281 18.613281 17.109375 19.207031 17.117188 C 19.453125 17.113281 19.621094 17.359375 19.589844 17.589844 C 19.589844 22.792969 19.597656 27.992188 19.585938 33.191406 C 19.589844 34.578125 19.019531 36.085938 17.738281 36.765625 C 16.15625 37.582031 14.207031 37.410156 12.644531 36.625 C 11.292969 35.953125 10.003906 35.15625 8.679688 34.433594 C 7.757812 33.957031 7.117188 32.960938 7.125 31.914062 L 7.125 16.15625 C 7.117188 15.128906 7.722656 14.140625 8.621094 13.660156 C 13.238281 11.050781 17.859375 8.441406 22.476562 5.835938 Z M 22.476562 5.835938 "/>
<path style=" stroke:none;fill-rule:nonzero;fill:rgb(50.588235%,80.392157%,22.352941%);fill-opacity:1;" d="M 26.507812 16.75 C 28.523438 16.621094 30.679688 16.671875 32.492188 17.664062 C 33.894531 18.425781 34.671875 20.023438 34.699219 21.582031 C 34.660156 21.792969 34.4375 21.910156 34.238281 21.894531 C 33.652344 21.894531 33.070312 21.902344 32.484375 21.890625 C 32.238281 21.898438 32.09375 21.671875 32.0625 21.453125 C 31.894531 20.707031 31.488281 19.96875 30.785156 19.605469 C 29.707031 19.066406 28.457031 19.09375 27.28125 19.105469 C 26.421875 19.152344 25.5 19.226562 24.773438 19.730469 C 24.214844 20.113281 24.042969 20.882812 24.242188 21.503906 C 24.433594 21.953125 24.945312 22.097656 25.367188 22.230469 C 27.796875 22.863281 30.371094 22.800781 32.75 23.636719 C 33.738281 23.976562 34.703125 24.640625 35.039062 25.671875 C 35.480469 27.054688 35.289062 28.710938 34.300781 29.820312 C 33.503906 30.734375 32.339844 31.230469 31.183594 31.5 C 29.640625 31.847656 28.039062 31.855469 26.472656 31.703125 C 25 31.535156 23.464844 31.148438 22.328125 30.144531 C 21.355469 29.296875 20.878906 27.984375 20.925781 26.714844 C 20.9375 26.5 21.152344 26.347656 21.359375 26.367188 C 21.945312 26.363281 22.535156 26.359375 23.125 26.367188 C 23.359375 26.351562 23.53125 26.554688 23.546875 26.773438 C 23.652344 27.484375 23.921875 28.234375 24.539062 28.652344 C 25.738281 29.425781 27.238281 29.371094 28.609375 29.394531 C 29.742188 29.34375 31.015625 29.328125 31.941406 28.578125 C 32.433594 28.152344 32.578125 27.433594 32.445312 26.820312 C 32.300781 26.300781 31.757812 26.058594 31.289062 25.898438 C 28.894531 25.140625 26.292969 25.414062 23.917969 24.558594 C 22.953125 24.21875 22.023438 23.574219 21.652344 22.582031 C 21.136719 21.183594 21.371094 19.449219 22.460938 18.375 C 23.519531 17.308594 25.050781 16.898438 26.507812 16.75 "/>
</g>
</svg>
