<?xml version="1.0" encoding="UTF-8"?>
<svg xmlns="http://www.w3.org/2000/svg" xmlns:xlink="http://www.w3.org/1999/xlink" width="48px" height="48px" viewBox="0 0 48 48" version="1.1">
<g id="surface1">
<path style=" stroke:none;fill-rule:nonzero;fill:rgb(14.117647%,16.078431%,21.960784%);fill-opacity:1;" d="M 11.25 0 L 36.75 0 C 42.964844 0 48 5.035156 48 11.25 L 48 36.75 C 48 42.964844 42.964844 48 36.75 48 L 11.25 48 C 5.035156 48 0 42.964844 0 36.75 L 0 11.25 C 0 5.035156 5.035156 0 11.25 0 Z M 11.25 0 "/>
<path style=" stroke:none;fill-rule:nonzero;fill:rgb(100%,100%,100%);fill-opacity:1;" d="M 9.21875 18.796875 L 14.542969 18.796875 C 16.105469 18.808594 17.238281 19.261719 17.941406 20.148438 C 18.644531 21.035156 18.875 22.246094 18.636719 23.785156 C 18.546875 24.488281 18.339844 25.175781 18.023438 25.851562 C 17.71875 26.527344 17.292969 27.136719 16.75 27.679688 C 16.085938 28.367188 15.378906 28.804688 14.625 28.992188 C 13.867188 29.175781 13.085938 29.269531 12.277344 29.269531 L 9.894531 29.269531 L 9.136719 33.046875 L 6.375 33.046875 Z M 11.542969 21.0625 L 10.351562 27.023438 C 10.429688 27.039062 10.507812 27.042969 10.589844 27.042969 C 10.679688 27.042969 10.773438 27.042969 10.867188 27.042969 C 12.140625 27.058594 13.199219 26.933594 14.046875 26.667969 C 14.894531 26.386719 15.464844 25.421875 15.757812 23.765625 C 15.996094 22.375 15.757812 21.570312 15.039062 21.359375 C 14.339844 21.148438 13.457031 21.046875 12.398438 21.0625 C 12.238281 21.074219 12.085938 21.082031 11.941406 21.082031 C 11.808594 21.082031 11.667969 21.082031 11.523438 21.082031 L 11.542969 21.0625 "/>
<path style=" stroke:none;fill-rule:nonzero;fill:rgb(100%,100%,100%);fill-opacity:1;" d="M 21.785156 15 L 24.527344 15 L 23.753906 18.796875 L 26.21875 18.796875 C 27.570312 18.824219 28.574219 19.101562 29.238281 19.632812 C 29.914062 20.160156 30.113281 21.167969 29.835938 22.652344 L 28.503906 29.269531 L 25.71875 29.269531 L 26.992188 22.949219 C 27.125 22.289062 27.085938 21.816406 26.871094 21.539062 C 26.660156 21.261719 26.203125 21.121094 25.5 21.121094 L 23.296875 21.101562 L 21.664062 29.269531 L 18.921875 29.269531 Z M 21.785156 15 "/>
<path style=" stroke:none;fill-rule:nonzero;fill:rgb(100%,100%,100%);fill-opacity:1;" d="M 32.78125 18.796875 L 38.105469 18.796875 C 39.667969 18.808594 40.800781 19.261719 41.503906 20.148438 C 42.207031 21.035156 42.4375 22.246094 42.199219 23.785156 C 42.109375 24.488281 41.902344 25.175781 41.585938 25.851562 C 41.277344 26.527344 40.855469 27.136719 40.3125 27.679688 C 39.648438 28.367188 38.941406 28.804688 38.183594 28.992188 C 37.429688 29.175781 36.648438 29.269531 35.839844 29.269531 L 33.457031 29.269531 L 32.699219 33.046875 L 29.9375 33.046875 Z M 35.105469 21.0625 L 33.914062 27.023438 C 33.992188 27.039062 34.070312 27.042969 34.152344 27.042969 C 34.242188 27.042969 34.335938 27.042969 34.429688 27.042969 C 35.699219 27.058594 36.761719 26.933594 37.609375 26.667969 C 38.457031 26.386719 39.027344 25.421875 39.320312 23.765625 C 39.558594 22.375 39.320312 21.570312 38.601562 21.359375 C 37.902344 21.148438 37.019531 21.046875 35.960938 21.0625 C 35.800781 21.074219 35.648438 21.082031 35.503906 21.082031 C 35.371094 21.082031 35.230469 21.082031 35.085938 21.082031 L 35.105469 21.0625 "/>
</g>
</svg>
