<?xml version="1.0" encoding="UTF-8"?>
<svg xmlns="http://www.w3.org/2000/svg" xmlns:xlink="http://www.w3.org/1999/xlink" width="48px" height="48px" viewBox="0 0 48 48" version="1.1">
<g id="surface1">
<path style=" stroke:none;fill-rule:nonzero;fill:rgb(14.117647%,16.078431%,21.960784%);fill-opacity:1;" d="M 11.25 0 L 36.75 0 C 42.964844 0 48 5.035156 48 11.25 L 48 36.75 C 48 42.964844 42.964844 48 36.75 48 L 11.25 48 C 5.035156 48 0 42.964844 0 36.75 L 0 11.25 C 0 5.035156 5.035156 0 11.25 0 Z M 11.25 0 "/>
<path style=" stroke:none;fill-rule:nonzero;fill:rgb(20%,40.392157%,56.862745%);fill-opacity:1;" d="M 38.152344 27.878906 C 34.34375 28.664062 34.066406 27.375 34.066406 27.375 C 38.089844 21.402344 39.773438 13.820312 38.320312 11.964844 C 34.359375 6.902344 27.503906 9.300781 27.390625 9.359375 L 27.351562 9.367188 C 26.515625 9.199219 25.664062 9.109375 24.808594 9.101562 C 23.085938 9.078125 21.777344 9.554688 20.785156 10.308594 C 20.785156 10.308594 8.550781 5.269531 9.121094 16.644531 C 9.242188 19.066406 12.589844 34.96875 16.582031 30.160156 C 18.054688 28.390625 19.464844 26.902344 19.464844 26.902344 C 20.164062 27.367188 21.003906 27.605469 21.882812 27.519531 L 21.953125 27.460938 C 21.929688 27.691406 21.941406 27.917969 21.980469 28.144531 C 20.949219 29.292969 21.253906 29.496094 19.195312 29.917969 C 17.117188 30.347656 18.339844 31.113281 19.136719 31.3125 C 20.105469 31.554688 22.34375 31.898438 23.855469 29.78125 L 23.796875 30.019531 C 24.199219 30.34375 24.480469 32.121094 24.433594 33.730469 C 24.386719 35.34375 24.355469 36.449219 24.671875 37.3125 C 24.988281 38.179688 25.304688 40.121094 28.007812 39.554688 C 30.265625 39.070312 31.433594 37.8125 31.597656 35.722656 C 31.714844 34.234375 31.976562 34.453125 31.996094 33.125 L 32.207031 32.496094 C 32.445312 30.480469 32.246094 29.828125 33.636719 30.132812 L 33.976562 30.164062 C 35 30.207031 36.339844 29.996094 37.125 29.632812 C 38.820312 28.847656 39.824219 27.535156 38.152344 27.878906 Z M 38.152344 27.878906 "/>
<path style="fill:none;stroke-width:5.034;stroke-linecap:round;stroke-linejoin:round;stroke:rgb(100%,100%,100%);stroke-opacity:1;stroke-miterlimit:4;" d="M 146.0625 48.604167 C 143.8125 49.291667 182.375 34.5 204.3125 62.5 C 212.041667 72.395833 203.083333 112.833333 181.604167 144.6875 M 128.104167 153.791667 C 127.541667 173.791667 128.229167 193.9375 130.1875 198.791667 C 132.145833 203.625 136.354167 213.208333 150.770833 210.125 C 162.8125 207.541667 167.208333 202.541667 169.104167 191.5 L 173.541667 156.229167 Z M 110.8125 53.479167 C 110.8125 53.479167 45.541667 26.770833 48.583333 87.458333 C 49.229167 100.354167 67.0625 185.1875 88.375 159.520833 C 96.145833 150.145833 103.1875 142.8125 103.1875 142.8125 Z M 110.8125 53.479167 " transform="matrix(0.1875,0,0,0.1875,0,0)"/>
<path style="fill:none;stroke-width:5.034;stroke-linecap:round;stroke-linejoin:bevel;stroke:rgb(100%,100%,100%);stroke-opacity:1;stroke-miterlimit:4;" d="M 181.604167 144.666667 C 181.604167 144.666667 183.020833 151.5625 203.416667 147.354167 C 212.3125 145.5 206.958333 152.520833 197.916667 156.708333 C 190.520833 160.145833 173.895833 161.020833 173.625 156.270833 C 172.916667 144 182.375 147.729167 181.6875 144.666667 C 181.0625 141.895833 176.833333 139.1875 174.041667 132.395833 C 171.604167 126.5 140.583333 81.145833 182.645833 87.875 C 184.208333 87.5625 171.6875 47.791667 132.3125 47.208333 C 92.9375 46.645833 94.1875 95.625 94.1875 95.625 " transform="matrix(0.1875,0,0,0.1875,0,0)"/>
<path style="fill:none;stroke-width:5.034;stroke-linecap:butt;stroke-linejoin:round;stroke:rgb(100%,100%,100%);stroke-opacity:1;stroke-miterlimit:4;" d="M 117.083333 148.875 C 111.604167 155 113.208333 156.083333 102.25 158.333333 C 91.145833 160.625 97.666667 164.6875 101.916667 165.75 C 107.083333 167.041667 119.020833 168.875 127.083333 157.583333 C 129.5625 154.125 127.083333 148.645833 123.708333 147.25 C 122.083333 146.583333 119.895833 145.75 117.104167 148.875 Z M 117.083333 148.875 " transform="matrix(0.1875,0,0,0.1875,0,0)"/>
<path style="fill:none;stroke-width:5.034;stroke-linecap:round;stroke-linejoin:round;stroke:rgb(100%,100%,100%);stroke-opacity:1;stroke-miterlimit:4;" d="M 116.729167 148.770833 C 116.166667 145.145833 117.895833 140.875 119.770833 135.854167 C 122.5625 128.333333 129.020833 120.8125 123.854167 96.916667 C 120.020833 79.125 94.1875 93.208333 94.1875 95.625 C 94.1875 98.041667 95.354167 107.854167 93.770833 119.291667 C 91.666667 134.208333 103.25 146.833333 116.583333 145.541667 " transform="matrix(0.1875,0,0,0.1875,0,0)"/>
<path style="fill-rule:nonzero;fill:rgb(100%,100%,100%);fill-opacity:1;stroke-width:1.68;stroke-linecap:butt;stroke-linejoin:miter;stroke:rgb(100%,100%,100%);stroke-opacity:1;stroke-miterlimit:4;" d="M 110.583333 95.270833 C 110.458333 96.083333 112.083333 98.291667 114.208333 98.583333 C 116.3125 98.875 118.125 97.166667 118.25 96.333333 C 118.375 95.5 116.729167 94.604167 114.625 94.3125 C 112.5 94.020833 110.6875 94.458333 110.583333 95.270833 Z M 110.583333 95.270833 " transform="matrix(0.1875,0,0,0.1875,0,0)"/>
<path style="fill-rule:nonzero;fill:rgb(100%,100%,100%);fill-opacity:1;stroke-width:0.837;stroke-linecap:butt;stroke-linejoin:miter;stroke:rgb(100%,100%,100%);stroke-opacity:1;stroke-miterlimit:4;" d="M 175.020833 93.583333 C 175.125 94.416667 173.5 96.604167 171.375 96.916667 C 169.270833 97.208333 167.4375 95.479167 167.333333 94.666667 C 167.229167 93.833333 168.854167 92.9375 170.958333 92.625 C 173.083333 92.333333 174.895833 92.770833 175.020833 93.583333 Z M 175.020833 93.583333 " transform="matrix(0.1875,0,0,0.1875,0,0)"/>
<path style="fill:none;stroke-width:5.034;stroke-linecap:round;stroke-linejoin:round;stroke:rgb(100%,100%,100%);stroke-opacity:1;stroke-miterlimit:4;" d="M 182.583333 87.895833 C 182.9375 94.354167 181.1875 98.75 180.958333 105.625 C 180.645833 115.625 185.729167 127.083333 178.0625 138.541667 " transform="matrix(0.1875,0,0,0.1875,0,0)"/>
</g>
</svg>
