<?xml version="1.0" encoding="UTF-8"?>
<svg xmlns="http://www.w3.org/2000/svg" xmlns:xlink="http://www.w3.org/1999/xlink" width="48px" height="48px" viewBox="0 0 48 48" version="1.1">
<g id="surface1">
<path style=" stroke:none;fill-rule:nonzero;fill:rgb(14.117647%,16.078431%,21.960784%);fill-opacity:1;" d="M 11.25 0 L 36.75 0 C 42.964844 0 48 5.035156 48 11.25 L 48 36.75 C 48 42.964844 42.964844 48 36.75 48 L 11.25 48 C 5.035156 48 0 42.964844 0 36.75 L 0 11.25 C 0 5.035156 5.035156 0 11.25 0 Z M 11.25 0 "/>
<path style=" stroke:none;fill-rule:nonzero;fill:rgb(0%,84.705882%,100%);fill-opacity:1;" d="M 24 27.554688 C 25.933594 27.554688 27.5 25.988281 27.5 24.054688 C 27.5 22.125 25.933594 20.558594 24 20.558594 C 22.070312 20.558594 20.503906 22.125 20.503906 24.054688 C 20.503906 25.988281 22.070312 27.554688 24 27.554688 Z M 24 27.554688 "/>
<path style="fill:none;stroke-width:8.911;stroke-linecap:butt;stroke-linejoin:miter;stroke:rgb(0%,84.705882%,100%);stroke-opacity:1;stroke-miterlimit:4;" d="M 128 90.354167 C 153.041667 90.354167 176.3125 93.958333 193.854167 100 C 215 107.270833 228 118.3125 228 128.291667 C 228 138.708333 214.229167 150.416667 191.520833 157.9375 C 174.354167 163.625 151.770833 166.604167 128 166.604167 C 103.625 166.604167 80.541667 163.8125 63.1875 157.875 C 41.229167 150.375 28 138.5 28 128.291667 C 28 118.395833 40.416667 107.4375 61.25 100.166667 C 78.854167 94.041667 102.708333 90.354167 128 90.354167 Z M 128 90.354167 " transform="matrix(0.1875,0,0,0.1875,0,0)"/>
<path style="fill:none;stroke-width:8.911;stroke-linecap:butt;stroke-linejoin:miter;stroke:rgb(0%,84.705882%,100%);stroke-opacity:1;stroke-miterlimit:4;" d="M 94.979167 109.4375 C 107.5 87.75 122.229167 69.375 136.229167 57.1875 C 153.104167 42.520833 169.145833 36.770833 177.791667 41.770833 C 186.8125 46.958333 190.083333 64.75 185.25 88.166667 C 181.604167 105.875 172.895833 126.916667 161.020833 147.520833 C 148.833333 168.645833 134.895833 187.25 121.083333 199.3125 C 103.625 214.583333 86.729167 220.104167 77.875 215.020833 C 69.291667 210.0625 66.020833 193.854167 70.145833 172.166667 C 73.604167 153.833333 82.354167 131.354167 94.979167 109.4375 Z M 94.979167 109.4375 " transform="matrix(0.1875,0,0,0.1875,0,0)"/>
<path style="fill:none;stroke-width:8.911;stroke-linecap:butt;stroke-linejoin:miter;stroke:rgb(0%,84.705882%,100%);stroke-opacity:1;stroke-miterlimit:4;" d="M 95.020833 147.583333 C 82.458333 125.895833 73.916667 103.958333 70.354167 85.75 C 66.0625 63.8125 69.104167 47.041667 77.75 42.041667 C 86.75 36.8125 103.791667 42.875 121.666667 58.75 C 135.1875 70.75 149.083333 88.8125 161 109.375 C 173.208333 130.479167 182.354167 151.854167 185.916667 169.854167 C 190.416667 192.604167 186.770833 210 177.9375 215.125 C 169.375 220.083333 153.666667 214.833333 136.9375 200.416667 C 122.8125 188.270833 107.6875 169.458333 95.020833 147.583333 Z M 95.020833 147.583333 " transform="matrix(0.1875,0,0,0.1875,0,0)"/>
</g>
</svg>
