<?xml version="1.0" encoding="UTF-8"?>
<svg xmlns="http://www.w3.org/2000/svg" xmlns:xlink="http://www.w3.org/1999/xlink" width="48px" height="48px" viewBox="0 0 48 48" version="1.1">
<defs>
<clipPath id="clip1">
  <path d="M 5.25 9.9375 L 42.75 9.9375 L 42.75 38.046875 L 5.25 38.046875 Z M 5.25 9.9375 "/>
</clipPath>
</defs>
<g id="surface1">
<path style=" stroke:none;fill-rule:nonzero;fill:rgb(80.392157%,40.392157%,60%);fill-opacity:1;" d="M 11.25 0 L 36.75 0 C 42.964844 0 48 5.035156 48 11.25 L 48 36.75 C 48 42.964844 42.964844 48 36.75 48 L 11.25 48 C 5.035156 48 0 42.964844 0 36.75 L 0 11.25 C 0 5.035156 5.035156 0 11.25 0 Z M 11.25 0 "/>
<g clip-path="url(#clip1)" clip-rule="nonzero">
<path style=" stroke:none;fill-rule:nonzero;fill:rgb(100%,100%,100%);fill-opacity:1;" d="M 37.519531 26.09375 C 36.210938 26.101562 35.078125 26.414062 34.125 26.878906 C 33.777344 26.1875 33.425781 25.574219 33.363281 25.121094 C 33.296875 24.59375 33.214844 24.273438 33.296875 23.640625 C 33.378906 23.011719 33.75 22.117188 33.742188 22.046875 C 33.734375 21.980469 33.660156 21.65625 32.90625 21.648438 C 32.152344 21.644531 31.503906 21.792969 31.425781 21.992188 C 31.351562 22.191406 31.207031 22.644531 31.113281 23.109375 C 30.984375 23.792969 29.605469 26.238281 28.820312 27.515625 C 28.566406 27.015625 28.347656 26.578125 28.300781 26.230469 C 28.230469 25.703125 28.148438 25.382812 28.230469 24.75 C 28.3125 24.121094 28.683594 23.226562 28.675781 23.15625 C 28.667969 23.085938 28.59375 22.765625 27.839844 22.757812 C 27.085938 22.753906 26.4375 22.902344 26.363281 23.101562 C 26.285156 23.300781 26.203125 23.765625 26.046875 24.21875 C 25.890625 24.667969 24.0625 28.75 23.582031 29.804688 C 23.335938 30.34375 23.125 30.773438 22.972656 31.070312 C 22.972656 31.070312 22.964844 31.089844 22.945312 31.125 C 22.816406 31.378906 22.742188 31.515625 22.742188 31.515625 C 22.742188 31.515625 22.742188 31.515625 22.742188 31.523438 C 22.636719 31.707031 22.527344 31.878906 22.472656 31.878906 C 22.433594 31.878906 22.355469 31.382812 22.488281 30.714844 C 22.761719 29.296875 23.410156 27.09375 23.40625 27.015625 C 23.40625 26.976562 23.527344 26.59375 22.980469 26.394531 C 22.445312 26.195312 22.253906 26.523438 22.207031 26.523438 C 22.160156 26.523438 22.125 26.640625 22.125 26.640625 C 22.125 26.640625 22.71875 24.164062 20.988281 24.164062 C 19.90625 24.164062 18.414062 25.347656 17.675781 26.414062 C 17.210938 26.667969 16.214844 27.207031 15.15625 27.789062 C 14.75 28.015625 14.335938 28.242188 13.945312 28.453125 C 13.917969 28.425781 13.890625 28.394531 13.863281 28.367188 C 11.765625 26.128906 7.890625 24.546875 8.058594 21.539062 C 8.117188 20.445312 8.496094 17.570312 15.496094 14.078125 C 21.261719 11.238281 25.847656 12.023438 26.640625 13.769531 C 27.777344 16.261719 24.183594 20.890625 18.230469 21.5625 C 15.957031 21.816406 14.765625 20.9375 14.464844 20.609375 C 14.148438 20.265625 14.101562 20.246094 13.984375 20.316406 C 13.792969 20.417969 13.917969 20.726562 13.984375 20.902344 C 14.164062 21.371094 14.894531 22.191406 16.132812 22.59375 C 17.230469 22.949219 19.894531 23.148438 23.117188 21.902344 C 26.722656 20.507812 29.546875 16.625 28.714844 13.375 C 27.886719 10.074219 22.410156 8.984375 17.230469 10.828125 C 14.148438 11.921875 10.808594 13.648438 8.40625 15.894531 C 5.550781 18.5625 5.097656 20.882812 5.285156 21.855469 C 5.949219 25.304688 10.707031 27.550781 12.609375 29.214844 C 12.511719 29.269531 12.425781 29.316406 12.347656 29.359375 C 11.398438 29.832031 7.769531 31.726562 6.867188 33.734375 C 5.839844 36.003906 7.03125 37.632812 7.816406 37.855469 C 10.261719 38.53125 12.773438 37.3125 14.121094 35.300781 C 15.46875 33.289062 15.304688 30.671875 14.683594 29.476562 C 14.675781 29.460938 14.667969 29.449219 14.65625 29.433594 C 14.902344 29.289062 15.15625 29.140625 15.402344 28.996094 C 15.886719 28.707031 16.367188 28.441406 16.777344 28.222656 C 16.546875 28.859375 16.375 29.617188 16.292969 30.714844 C 16.1875 32 16.714844 33.671875 17.40625 34.328125 C 17.714844 34.617188 18.078125 34.621094 18.3125 34.621094 C 19.121094 34.621094 19.480469 33.953125 19.886719 33.15625 C 20.378906 32.183594 20.824219 31.054688 20.824219 31.054688 C 20.824219 31.054688 20.269531 34.109375 21.773438 34.109375 C 22.324219 34.109375 22.878906 33.398438 23.125 33.035156 C 23.125 33.042969 23.125 33.042969 23.125 33.042969 C 23.125 33.042969 23.136719 33.019531 23.164062 32.972656 C 23.21875 32.882812 23.253906 32.828125 23.253906 32.828125 C 23.253906 32.828125 23.253906 32.820312 23.253906 32.816406 C 23.472656 32.433594 23.964844 31.5625 24.699219 30.117188 C 25.644531 28.257812 26.554688 25.929688 26.554688 25.929688 C 26.554688 25.929688 26.636719 26.496094 26.917969 27.441406 C 27.082031 27.996094 27.421875 28.605469 27.695312 29.195312 C 27.476562 29.503906 27.339844 29.671875 27.339844 29.671875 C 27.339844 29.671875 27.339844 29.671875 27.347656 29.679688 C 27.167969 29.914062 26.976562 30.167969 26.765625 30.414062 C 26.019531 31.300781 25.128906 32.324219 25.007812 32.617188 C 24.863281 32.964844 24.898438 33.21875 25.171875 33.425781 C 25.367188 33.574219 25.726562 33.59375 26.085938 33.574219 C 26.757812 33.527344 27.230469 33.363281 27.464844 33.261719 C 27.828125 33.128906 28.25 32.933594 28.648438 32.636719 C 29.378906 32.097656 29.824219 31.324219 29.785156 30.304688 C 29.765625 29.742188 29.578125 29.179688 29.351562 28.652344 C 29.421875 28.558594 29.484375 28.460938 29.550781 28.367188 C 30.707031 26.675781 31.605469 24.820312 31.605469 24.820312 C 31.605469 24.820312 31.6875 25.386719 31.96875 26.332031 C 32.105469 26.8125 32.386719 27.332031 32.632812 27.839844 C 31.542969 28.722656 30.871094 29.75 30.632812 30.417969 C 30.203125 31.664062 30.539062 32.226562 31.175781 32.355469 C 31.460938 32.417969 31.871094 32.28125 32.171875 32.152344 C 32.558594 32.027344 33.007812 31.816406 33.441406 31.5 C 34.171875 30.960938 34.878906 30.207031 34.835938 29.1875 C 34.816406 28.722656 34.691406 28.261719 34.523438 27.816406 C 35.445312 27.433594 36.636719 27.222656 38.15625 27.402344 C 41.414062 27.785156 42.058594 29.816406 41.933594 30.671875 C 41.8125 31.527344 41.128906 31.992188 40.902344 32.136719 C 40.675781 32.28125 40.601562 32.328125 40.621094 32.433594 C 40.648438 32.582031 40.757812 32.574219 40.949219 32.546875 C 41.214844 32.5 42.660156 31.855469 42.722656 30.28125 C 42.824219 28.269531 40.910156 26.074219 37.519531 26.09375 Z M 12.382812 34.566406 C 11.300781 35.746094 9.796875 36.191406 9.144531 35.8125 C 8.445312 35.410156 8.722656 33.671875 10.046875 32.425781 C 10.855469 31.664062 11.898438 30.960938 12.589844 30.527344 C 12.746094 30.433594 12.980469 30.296875 13.257812 30.125 C 13.308594 30.097656 13.335938 30.085938 13.335938 30.085938 C 13.390625 30.050781 13.445312 30.015625 13.5 29.980469 C 13.984375 31.761719 13.519531 33.328125 12.382812 34.566406 Z M 20.253906 29.214844 C 19.878906 30.132812 19.09375 32.480469 18.613281 32.351562 C 18.203125 32.242188 17.949219 30.460938 18.53125 28.703125 C 18.824219 27.816406 19.449219 26.765625 19.808594 26.351562 C 20.398438 25.695312 21.050781 25.476562 21.207031 25.742188 C 21.40625 26.09375 20.488281 28.640625 20.253906 29.214844 Z M 26.75 32.324219 C 26.59375 32.40625 26.445312 32.460938 26.375 32.417969 C 26.328125 32.390625 26.445312 32.28125 26.445312 32.28125 C 26.445312 32.28125 27.257812 31.40625 27.582031 31.007812 C 27.765625 30.773438 27.984375 30.5 28.21875 30.195312 C 28.21875 30.222656 28.21875 30.253906 28.21875 30.28125 C 28.21875 31.328125 27.203125 32.035156 26.75 32.324219 Z M 31.761719 31.179688 C 31.644531 31.097656 31.667969 30.824219 32.058594 29.96875 C 32.207031 29.632812 32.5625 29.070312 33.171875 28.53125 C 33.242188 28.75 33.289062 28.960938 33.28125 29.160156 C 33.277344 30.480469 32.332031 30.972656 31.761719 31.179688 Z M 31.761719 31.179688 "/>
</g>
</g>
</svg>
