<?xml version="1.0" encoding="UTF-8"?>
<svg xmlns="http://www.w3.org/2000/svg" xmlns:xlink="http://www.w3.org/1999/xlink" width="48px" height="48px" viewBox="0 0 48 48" version="1.1">
<g id="surface1">
<path style=" stroke:none;fill-rule:nonzero;fill:rgb(14.117647%,16.078431%,21.960784%);fill-opacity:1;" d="M 11.25 0 L 36.75 0 C 42.964844 0 48 5.035156 48 11.25 L 48 36.75 C 48 42.964844 42.964844 48 36.75 48 L 11.25 48 C 5.035156 48 0 42.964844 0 36.75 L 0 11.25 C 0 5.035156 5.035156 0 11.25 0 Z M 11.25 0 "/>
<path style=" stroke:none;fill-rule:nonzero;fill:rgb(0%,0%,0%);fill-opacity:1;" d="M 3.1875 22.5 L 44.558594 22.5 L 44.558594 36.207031 C 44.558594 39.429688 41.925781 41.894531 38.492188 41.894531 L 9.253906 41.894531 C 5.816406 41.894531 3.1875 39.429688 3.1875 36.207031 Z M 3.1875 22.5 "/>
<path style="fill-rule:nonzero;fill:rgb(100%,69.411765%,23.137255%);fill-opacity:1;stroke-width:28.695;stroke-linecap:butt;stroke-linejoin:miter;stroke:rgb(0%,0%,0%);stroke-opacity:1;stroke-miterlimit:4;" d="M 61.625 108.916667 C 54.8125 102.5 43.75 102.5 36.916667 108.916667 C 30.104167 115.3125 30.104167 125.6875 36.916667 132.083333 C 43.75 138.479167 54.8125 138.479167 61.625 132.083333 L 192.854167 132.083333 C 199.666667 138.479167 210.729167 138.479167 217.5625 132.083333 C 224.395833 125.6875 224.395833 115.3125 217.5625 108.916667 C 210.729167 102.5 199.666667 102.5 192.854167 108.916667 Z M 61.625 108.916667 " transform="matrix(0.1875,0,0,0.1875,0,0)"/>
<path style="fill-rule:nonzero;fill:rgb(100%,69.411765%,23.137255%);fill-opacity:1;stroke-width:28.725;stroke-linecap:butt;stroke-linejoin:miter;stroke:rgb(0%,0%,0%);stroke-opacity:1;stroke-miterlimit:4;" d="M 89.583333 68.8125 C 89.583333 59.75 81.770833 52.416667 72.104167 52.416667 C 62.458333 52.416667 54.625 59.75 54.625 68.8125 C 54.625 77.854167 62.458333 85.1875 72.104167 85.1875 L 164.895833 172.1875 C 164.895833 181.25 172.729167 188.583333 182.375 188.583333 C 192.020833 188.583333 199.854167 181.25 199.854167 172.1875 C 199.854167 163.145833 192.020833 155.8125 182.375 155.8125 Z M 89.583333 68.8125 " transform="matrix(0.1875,0,0,0.1875,0,0)"/>
<path style="fill-rule:nonzero;fill:rgb(100%,69.411765%,23.137255%);fill-opacity:1;stroke-width:28.695;stroke-linecap:butt;stroke-linejoin:miter;stroke:rgb(0%,0%,0%);stroke-opacity:1;stroke-miterlimit:4;" d="M 139.604167 58.979167 C 146.416667 52.583333 146.416667 42.208333 139.604167 35.791667 C 132.770833 29.395833 121.708333 29.395833 114.875 35.791667 C 108.0625 42.208333 108.0625 52.583333 114.875 58.979167 L 114.875 182.020833 C 108.0625 188.416667 108.0625 198.791667 114.875 205.1875 C 121.708333 211.583333 132.770833 211.583333 139.604167 205.1875 C 146.416667 198.791667 146.416667 188.416667 139.604167 182.020833 Z M 139.604167 58.979167 " transform="matrix(0.1875,0,0,0.1875,0,0)"/>
<path style="fill-rule:nonzero;fill:rgb(100%,69.411765%,23.137255%);fill-opacity:1;stroke-width:28.725;stroke-linecap:butt;stroke-linejoin:miter;stroke:rgb(0%,0%,0%);stroke-opacity:1;stroke-miterlimit:4;" d="M 182.375 85.1875 C 192.020833 85.1875 199.854167 77.854167 199.854167 68.8125 C 199.854167 59.75 192.020833 52.416667 182.375 52.416667 C 172.729167 52.416667 164.895833 59.75 164.895833 68.8125 L 72.104167 155.8125 C 62.458333 155.8125 54.625 163.145833 54.625 172.1875 C 54.625 181.25 62.458333 188.583333 72.104167 188.583333 C 81.770833 188.583333 89.583333 181.25 89.583333 172.1875 Z M 182.375 85.1875 " transform="matrix(0.1875,0,0,0.1875,0,0)"/>
<path style=" stroke:none;fill-rule:nonzero;fill:rgb(100%,69.411765%,23.137255%);fill-opacity:1;" d="M 11.554688 20.421875 C 10.277344 19.21875 8.203125 19.21875 6.921875 20.421875 C 5.644531 21.621094 5.644531 23.566406 6.921875 24.765625 C 8.203125 25.964844 10.277344 25.964844 11.554688 24.765625 L 36.160156 24.765625 C 37.4375 25.964844 39.511719 25.964844 40.792969 24.765625 C 42.074219 23.566406 42.074219 21.621094 40.792969 20.421875 C 39.511719 19.21875 37.4375 19.21875 36.160156 20.421875 Z M 11.554688 20.421875 "/>
<path style=" stroke:none;fill-rule:nonzero;fill:rgb(100%,69.411765%,23.137255%);fill-opacity:1;" d="M 16.796875 12.902344 C 16.796875 11.203125 15.332031 9.828125 13.519531 9.828125 C 11.710938 9.828125 10.242188 11.203125 10.242188 12.902344 C 10.242188 14.597656 11.710938 15.972656 13.519531 15.972656 L 30.917969 32.285156 C 30.917969 33.984375 32.386719 35.359375 34.195312 35.359375 C 36.003906 35.359375 37.472656 33.984375 37.472656 32.285156 C 37.472656 30.589844 36.003906 29.214844 34.195312 29.214844 Z M 16.796875 12.902344 "/>
<path style=" stroke:none;fill-rule:nonzero;fill:rgb(100%,69.411765%,23.137255%);fill-opacity:1;" d="M 26.175781 11.058594 C 27.453125 9.859375 27.453125 7.914062 26.175781 6.710938 C 24.894531 5.511719 22.820312 5.511719 21.539062 6.710938 C 20.261719 7.914062 20.261719 9.859375 21.539062 11.058594 L 21.539062 34.128906 C 20.261719 35.328125 20.261719 37.273438 21.539062 38.472656 C 22.820312 39.671875 24.894531 39.671875 26.175781 38.472656 C 27.453125 37.273438 27.453125 35.328125 26.175781 34.128906 Z M 26.175781 11.058594 "/>
<path style=" stroke:none;fill-rule:nonzero;fill:rgb(100%,69.411765%,23.137255%);fill-opacity:1;" d="M 34.195312 15.972656 C 36.003906 15.972656 37.472656 14.597656 37.472656 12.902344 C 37.472656 11.203125 36.003906 9.828125 34.195312 9.828125 C 32.386719 9.828125 30.917969 11.203125 30.917969 12.902344 L 13.519531 29.214844 C 11.710938 29.214844 10.242188 30.589844 10.242188 32.285156 C 10.242188 33.984375 11.710938 35.359375 13.519531 35.359375 C 15.332031 35.359375 16.796875 33.984375 16.796875 32.285156 Z M 34.195312 15.972656 "/>
<path style=" stroke:none;fill-rule:nonzero;fill:rgb(0%,0%,0%);fill-opacity:0.901961;" d="M 3.1875 22.6875 L 44.558594 22.6875 L 44.558594 36.394531 C 44.558594 39.617188 41.925781 42.082031 38.492188 42.082031 L 9.253906 42.082031 C 5.816406 42.082031 3.1875 39.617188 3.1875 36.394531 Z M 3.1875 22.6875 "/>
<path style=" stroke:none;fill-rule:nonzero;fill:rgb(100%,100%,100%);fill-opacity:1;" d="M 9.378906 32.273438 C 8.410156 31.367188 7.808594 30.109375 7.808594 28.722656 C 7.808594 25.945312 10.210938 23.695312 13.167969 23.695312 C 16.128906 23.695312 18.53125 25.945312 18.53125 28.722656 L 15.390625 28.722656 C 15.390625 27.574219 14.394531 26.640625 13.167969 26.640625 C 11.945312 26.640625 10.949219 27.574219 10.949219 28.722656 C 10.949219 29.296875 11.199219 29.816406 11.597656 30.191406 L 11.601562 30.191406 C 12.003906 30.570312 12.335938 30.679688 13.167969 30.804688 C 14.652344 30.949219 15.992188 31.367188 16.960938 32.277344 C 17.929688 33.1875 18.53125 34.441406 18.53125 35.832031 C 18.53125 38.605469 16.128906 40.859375 13.167969 40.859375 C 10.210938 40.859375 7.808594 38.605469 7.808594 35.832031 L 10.949219 35.832031 C 10.949219 36.980469 11.945312 37.914062 13.167969 37.914062 C 14.394531 37.914062 15.390625 36.980469 15.390625 35.832031 C 15.390625 35.257812 15.144531 34.738281 14.742188 34.359375 C 14.339844 33.984375 13.761719 33.855469 13.167969 33.75 C 11.734375 33.542969 10.351562 33.1875 9.378906 32.273438 Z M 9.378906 32.273438 "/>
<path style=" stroke:none;fill-rule:nonzero;fill:rgb(100%,100%,100%);fill-opacity:1;" d="M 29.253906 23.695312 L 25.460938 40.859375 L 22.320312 40.859375 L 18.53125 23.695312 L 21.671875 23.695312 L 23.894531 33.746094 L 26.113281 23.695312 Z M 29.253906 23.695312 "/>
<path style=" stroke:none;fill-rule:nonzero;fill:rgb(100%,100%,100%);fill-opacity:1;" d="M 34.613281 30.804688 L 39.976562 30.804688 L 39.976562 35.832031 C 39.976562 38.605469 37.574219 40.859375 34.613281 40.859375 C 31.652344 40.859375 29.253906 38.605469 29.253906 35.832031 L 29.253906 28.722656 C 29.253906 25.945312 31.652344 23.695312 34.613281 23.695312 C 37.574219 23.695312 39.976562 25.945312 39.976562 28.722656 L 36.835938 28.722656 C 36.835938 27.574219 35.839844 26.640625 34.613281 26.640625 C 33.386719 26.640625 32.394531 27.574219 32.394531 28.722656 L 32.394531 35.832031 C 32.394531 36.980469 33.386719 37.914062 34.613281 37.914062 C 35.839844 37.914062 36.832031 36.980469 36.835938 35.832031 L 36.835938 33.75 L 34.613281 33.75 Z M 34.613281 30.804688 "/>
</g>
</svg>
