<?xml version="1.0" encoding="UTF-8"?>
<svg xmlns="http://www.w3.org/2000/svg" xmlns:xlink="http://www.w3.org/1999/xlink" width="48px" height="48px" viewBox="0 0 48 48" version="1.1">
<defs>
<linearGradient id="linear0" gradientUnits="userSpaceOnUse" x1="86.5" y1="74" x2="163.5" y2="185.5" gradientTransform="matrix(0.1875,0,0,0.1875,0,0)">
<stop offset="0" style="stop-color:rgb(19.607843%,69.411765%,75.686275%);stop-opacity:1;"/>
<stop offset="1" style="stop-color:rgb(7.843137%,77.647059%,71.764706%);stop-opacity:1;"/>
</linearGradient>
</defs>
<g id="surface1">
<path style=" stroke:none;fill-rule:nonzero;fill:rgb(14.117647%,16.078431%,21.960784%);fill-opacity:1;" d="M 11.25 0 L 36.75 0 C 42.964844 0 48 5.035156 48 11.25 L 48 36.75 C 48 42.964844 42.964844 48 36.75 48 L 11.25 48 C 5.035156 48 0 42.964844 0 36.75 L 0 11.25 C 0 5.035156 5.035156 0 11.25 0 Z M 11.25 0 "/>
<path style=" stroke:none;fill-rule:evenodd;fill:url(#linear0);" d="M 15.5625 20.625 C 16.6875 16.125 19.5 13.875 24 13.875 C 30.75 13.875 31.59375 18.9375 34.96875 19.78125 C 37.21875 20.34375 39.1875 19.5 40.875 17.25 C 39.75 21.75 36.9375 24 32.4375 24 C 25.6875 24 24.84375 18.9375 21.46875 18.09375 C 19.21875 17.53125 17.25 18.375 15.5625 20.625 Z M 7.125 30.75 C 8.25 26.25 11.0625 24 15.5625 24 C 22.3125 24 23.15625 29.0625 26.53125 29.90625 C 28.78125 30.46875 30.75 29.625 32.4375 27.375 C 31.3125 31.875 28.5 34.125 24 34.125 C 17.25 34.125 16.40625 29.0625 13.03125 28.21875 C 10.78125 27.65625 8.8125 28.5 7.125 30.75 Z M 7.125 30.75 "/>
</g>
</svg>
