<?xml version="1.0" encoding="UTF-8"?>
<svg xmlns="http://www.w3.org/2000/svg" xmlns:xlink="http://www.w3.org/1999/xlink" width="48px" height="48px" viewBox="0 0 48 48" version="1.1">
<defs>
<linearGradient id="linear0" gradientUnits="userSpaceOnUse" x1="26.3459" y1="44.075" x2="143.127" y2="202.673" gradientTransform="matrix(0.1875,0,0,0.1875,0,0)">
<stop offset="0" style="stop-color:rgb(25.490196%,81.960784%,100%);stop-opacity:1;"/>
<stop offset="1" style="stop-color:rgb(74.117647%,20.392157%,99.607843%);stop-opacity:1;"/>
</linearGradient>
<linearGradient id="linear1" gradientUnits="userSpaceOnUse" x1="122.551" y1="31.7433" x2="143.676" y2="176.66" gradientTransform="matrix(0.1875,0,0,0.1875,0,0)">
<stop offset="0" style="stop-color:rgb(100%,91.764706%,51.372549%);stop-opacity:1;"/>
<stop offset="0.0833333" style="stop-color:rgb(100%,86.666667%,20.784314%);stop-opacity:1;"/>
<stop offset="1" style="stop-color:rgb(100%,65.882353%,0%);stop-opacity:1;"/>
</linearGradient>
</defs>
<g id="surface1">
<path style=" stroke:none;fill-rule:nonzero;fill:rgb(14.117647%,16.078431%,21.960784%);fill-opacity:1;" d="M 11.25 0 L 36.75 0 C 42.964844 0 48 5.035156 48 11.25 L 48 36.75 C 48 42.964844 42.964844 48 36.75 48 L 11.25 48 C 5.035156 48 0 42.964844 0 36.75 L 0 11.25 C 0 5.035156 5.035156 0 11.25 0 Z M 11.25 0 "/>
<path style=" stroke:none;fill-rule:nonzero;fill:url(#linear0);" d="M 42.578125 10.800781 L 24.984375 42.261719 C 24.621094 42.910156 23.6875 42.914062 23.320312 42.265625 L 5.378906 10.804688 C 4.976562 10.097656 5.578125 9.246094 6.375 9.386719 L 23.988281 12.535156 C 24.101562 12.554688 24.214844 12.554688 24.328125 12.535156 L 41.574219 9.394531 C 42.367188 9.246094 42.972656 10.09375 42.578125 10.800781 Z M 42.578125 10.800781 "/>
<path style=" stroke:none;fill-rule:nonzero;fill:url(#linear1);" d="M 32.378906 5.257812 L 19.359375 7.808594 C 19.144531 7.851562 18.988281 8.035156 18.972656 8.25 L 18.171875 21.777344 C 18.152344 22.097656 18.445312 22.34375 18.757812 22.273438 L 22.382812 21.433594 C 22.722656 21.355469 23.027344 21.65625 22.957031 21.996094 L 21.882812 27.269531 C 21.808594 27.625 22.140625 27.929688 22.488281 27.824219 L 24.726562 27.144531 C 25.074219 27.039062 25.410156 27.34375 25.335938 27.699219 L 23.625 35.980469 C 23.515625 36.5 24.207031 36.78125 24.492188 36.335938 L 24.683594 36.042969 L 35.292969 14.867188 C 35.472656 14.515625 35.164062 14.109375 34.777344 14.183594 L 31.046875 14.90625 C 30.695312 14.972656 30.394531 14.644531 30.496094 14.304688 L 32.929688 5.859375 C 33.027344 5.515625 32.730469 5.191406 32.378906 5.257812 Z M 32.378906 5.257812 "/>
</g>
</svg>
