<?xml version="1.0" encoding="UTF-8"?>
<svg xmlns="http://www.w3.org/2000/svg" xmlns:xlink="http://www.w3.org/1999/xlink" width="48px" height="48px" viewBox="0 0 48 48" version="1.1">
<g id="surface1">
<path style=" stroke:none;fill-rule:nonzero;fill:rgb(14.117647%,16.078431%,21.960784%);fill-opacity:1;" d="M 11.25 0 L 36.75 0 C 42.964844 0 48 5.035156 48 11.25 L 48 36.75 C 48 42.964844 42.964844 48 36.75 48 L 11.25 48 C 5.035156 48 0 42.964844 0 36.75 L 0 11.25 C 0 5.035156 5.035156 0 11.25 0 Z M 11.25 0 "/>
<path style=" stroke:none;fill-rule:nonzero;fill:rgb(14.117647%,53.72549%,79.215686%);fill-opacity:1;" d="M 6.320312 18.789062 C 6.320312 18.789062 5.433594 18.148438 6.5 17.292969 L 8.980469 15.074219 C 8.980469 15.074219 9.691406 14.328125 10.441406 14.980469 L 33.34375 32.320312 L 33.34375 40.632812 C 33.34375 40.632812 33.332031 41.941406 31.660156 41.796875 Z M 6.320312 18.789062 "/>
<path style=" stroke:none;fill-rule:nonzero;fill:rgb(6.27451%,43.921569%,70.196078%);fill-opacity:1;" d="M 12.226562 24.148438 L 6.320312 29.515625 C 6.320312 29.515625 5.714844 29.964844 6.320312 30.773438 L 9.0625 33.265625 C 9.0625 33.265625 9.714844 33.964844 10.675781 33.167969 L 16.933594 28.425781 Z M 12.226562 24.148438 "/>
<path style=" stroke:none;fill-rule:nonzero;fill:rgb(3.137255%,46.666667%,72.54902%);fill-opacity:1;" d="M 22.589844 24.191406 L 33.414062 15.925781 L 33.34375 7.65625 C 33.34375 7.65625 32.882812 5.851562 31.339844 6.789062 L 16.933594 19.902344 Z M 22.589844 24.191406 "/>
<path style=" stroke:none;fill-rule:nonzero;fill:rgb(23.529412%,60%,83.137255%);fill-opacity:1;" d="M 31.660156 41.804688 C 32.289062 42.449219 33.050781 42.238281 33.050781 42.238281 L 41.484375 38.082031 C 42.566406 37.34375 42.414062 36.433594 42.414062 36.433594 L 42.414062 11.605469 C 42.414062 10.515625 41.296875 10.136719 41.296875 10.136719 L 33.984375 6.613281 C 32.386719 5.625 31.339844 6.789062 31.339844 6.789062 C 31.339844 6.789062 32.6875 5.820312 33.34375 7.65625 L 33.34375 40.480469 C 33.34375 40.707031 33.296875 40.929688 33.199219 41.128906 C 33.007812 41.519531 32.589844 41.878906 31.589844 41.730469 Z M 31.660156 41.804688 "/>
</g>
</svg>
