<?xml version="1.0" encoding="UTF-8"?>
<svg xmlns="http://www.w3.org/2000/svg" xmlns:xlink="http://www.w3.org/1999/xlink" width="48px" height="48px" viewBox="0 0 48 48" version="1.1">
<g id="surface1">
<path style=" stroke:none;fill-rule:nonzero;fill:rgb(0%,45.098039%,66.666667%);fill-opacity:1;" d="M 11.25 0 L 36.75 0 C 42.964844 0 48 5.035156 48 11.25 L 48 36.75 C 48 42.964844 42.964844 48 36.75 48 L 11.25 48 C 5.035156 48 0 42.964844 0 36.75 L 0 11.25 C 0 5.035156 5.035156 0 11.25 0 Z M 11.25 0 "/>
<path style=" stroke:none;fill-rule:nonzero;fill:rgb(100%,100%,100%);fill-opacity:1;" d="M 7.914062 24 C 7.914062 30.367188 11.613281 35.867188 16.980469 38.476562 L 9.308594 17.453125 C 8.414062 19.453125 7.914062 21.667969 7.914062 24 Z M 7.914062 24 "/>
<path style=" stroke:none;fill-rule:nonzero;fill:rgb(100%,100%,100%);fill-opacity:1;" d="M 34.859375 23.1875 C 34.859375 21.199219 34.144531 19.824219 33.53125 18.75 C 32.714844 17.425781 31.953125 16.304688 31.953125 14.980469 C 31.953125 13.5 33.074219 12.125 34.652344 12.125 C 34.722656 12.125 34.792969 12.132812 34.859375 12.136719 C 32 9.515625 28.1875 7.914062 24 7.914062 C 18.378906 7.914062 13.4375 10.796875 10.5625 15.164062 C 10.9375 15.175781 11.292969 15.183594 11.597656 15.183594 C 13.277344 15.183594 15.882812 14.980469 15.882812 14.980469 C 16.75 14.929688 16.851562 16.203125 15.984375 16.304688 C 15.984375 16.304688 15.113281 16.40625 14.144531 16.457031 L 20 33.878906 L 23.523438 23.324219 L 21.015625 16.457031 C 20.148438 16.40625 19.328125 16.304688 19.328125 16.304688 C 18.460938 16.253906 18.5625 14.929688 19.429688 14.980469 C 19.429688 14.980469 22.085938 15.183594 23.667969 15.183594 C 25.351562 15.183594 27.953125 14.980469 27.953125 14.980469 C 28.820312 14.929688 28.921875 16.203125 28.058594 16.304688 C 28.058594 16.304688 27.183594 16.40625 26.214844 16.457031 L 32.027344 33.746094 L 33.632812 28.386719 C 34.328125 26.160156 34.859375 24.5625 34.859375 23.1875 Z M 34.859375 23.1875 "/>
<path style=" stroke:none;fill-rule:nonzero;fill:rgb(100%,100%,100%);fill-opacity:1;" d="M 24.28125 25.40625 L 19.457031 39.429688 C 20.898438 39.851562 22.421875 40.085938 24 40.085938 C 25.871094 40.085938 27.667969 39.761719 29.339844 39.171875 C 29.296875 39.105469 29.257812 39.03125 29.226562 38.949219 Z M 24.28125 25.40625 "/>
<path style=" stroke:none;fill-rule:nonzero;fill:rgb(100%,100%,100%);fill-opacity:1;" d="M 38.113281 16.28125 C 38.183594 16.792969 38.222656 17.34375 38.222656 17.9375 C 38.222656 19.566406 37.917969 21.402344 37 23.695312 L 32.085938 37.902344 C 36.867188 35.113281 40.082031 29.933594 40.082031 24 C 40.082031 21.203125 39.371094 18.574219 38.113281 16.28125 Z M 38.113281 16.28125 "/>
<path style=" stroke:none;fill-rule:nonzero;fill:rgb(100%,100%,100%);fill-opacity:1;" d="M 24 5.25 C 13.660156 5.25 5.25 13.660156 5.25 24 C 5.25 34.339844 13.660156 42.75 24 42.75 C 34.335938 42.75 42.75 34.339844 42.75 24 C 42.75 13.660156 34.335938 5.25 24 5.25 Z M 24 41.890625 C 14.136719 41.890625 6.109375 33.863281 6.109375 24 C 6.109375 14.136719 14.136719 6.109375 24 6.109375 C 33.863281 6.109375 41.886719 14.136719 41.886719 24 C 41.886719 33.863281 33.863281 41.890625 24 41.890625 Z M 24 41.890625 "/>
</g>
</svg>
